<?xml version="1.0" encoding="utf-8"?>
<!-- Generator: Adobe Illustrator 18.0.0, SVG Export Plug-In . SVG Version: 6.00 Build 0)  -->
<!DOCTYPE svg PUBLIC "-//W3C//DTD SVG 1.1//EN" "http://www.w3.org/Graphics/SVG/1.1/DTD/svg11.dtd">
<svg version="1.1" xmlns="http://www.w3.org/2000/svg" xmlns:xlink="http://www.w3.org/1999/xlink" x="0px" y="0px"
	 viewBox="0 0 3586.1 47" enable-background="new 0 0 3586.1 47" xml:space="preserve">
<g id="Layer_1">
</g>
<g id="Layer_2">
	<path fill="#44B6FF" d="M993,3.1c-11.3,0-20.4,9.1-20.4,20.4s9.1,20.4,20.4,20.4c11.3,0,20.4-9.1,20.4-20.4S1004.3,3.1,993,3.1z
		 M993,43.3c-10.9,0-19.8-8.9-19.8-19.8c0-10.9,8.9-19.8,19.8-19.8c10.9,0,19.8,8.9,19.8,19.8C1012.8,34.4,1003.9,43.3,993,43.3z"/>
	<path fill="#44B6FF" d="M929,3.1c-11.3,0-20.4,9.1-20.4,20.4s9.1,20.4,20.4,20.4c11.3,0,20.4-9.1,20.4-20.4S940.3,3.1,929,3.1z
		 M929,42.8c-10.6,0-19.3-8.6-19.3-19.3c0-10.6,8.6-19.3,19.3-19.3c10.6,0,19.3,8.6,19.3,19.3C948.3,34.1,939.6,42.8,929,42.8z"/>
	<path fill="#44B6FF" d="M865,3.1c-11.3,0-20.4,9.1-20.4,20.4s9.1,20.4,20.4,20.4c11.3,0,20.4-9.1,20.4-20.4S876.3,3.1,865,3.1z
		 M865,41.9c-10.2,0-18.4-8.3-18.4-18.4S854.8,5.1,865,5.1s18.4,8.3,18.4,18.4S875.2,41.9,865,41.9z"/>
	<path fill="#44B6FF" d="M801,3.1c-11.3,0-20.4,9.1-20.4,20.4s9.1,20.4,20.4,20.4c11.3,0,20.4-9.1,20.4-20.4S812.3,3.1,801,3.1z
		 M801,40c-9.1,0-16.5-7.4-16.5-16.5S791.9,7,801,7s16.5,7.4,16.5,16.5S810.1,40,801,40z"/>
	<path fill="#44B6FF" d="M737,3.1c-11.3,0-20.4,9.1-20.4,20.4s9.1,20.4,20.4,20.4c11.3,0,20.4-9.1,20.4-20.4S748.3,3.1,737,3.1z
		 M737,38.3c-8.1,0-14.8-6.6-14.8-14.8S728.9,8.7,737,8.7c8.1,0,14.8,6.6,14.8,14.8S745.1,38.3,737,38.3z"/>
	<path fill="#44B6FF" d="M673,4.4c-10.6,0-19.1,8.6-19.1,19.1s8.6,19.1,19.1,19.1s19.1-8.6,19.1-19.1S683.6,4.4,673,4.4z M673,33.9
		c-5.7,0-10.4-4.6-10.4-10.4s4.6-10.4,10.4-10.4c5.7,0,10.4,4.6,10.4,10.4S678.7,33.9,673,33.9z"/>
	<path fill="#44B6FF" d="M609,4.4c-10.6,0-19.1,8.6-19.1,19.1s8.6,19.1,19.1,19.1s19.1-8.6,19.1-19.1S619.6,4.4,609,4.4z M609,33.9
		c-5.7,0-10.4-4.6-10.4-10.4s4.6-10.4,10.4-10.4c5.7,0,10.4,4.6,10.4,10.4S614.7,33.9,609,33.9z"/>
	<path fill="#44B6FF" d="M545,4.4c-10.6,0-19.1,8.6-19.1,19.1s8.6,19.1,19.1,19.1s19.1-8.6,19.1-19.1S555.6,4.4,545,4.4z M545,28.1
		c-2.6,0-4.6-2.1-4.6-4.6c0-2.6,2.1-4.6,4.6-4.6c2.6,0,4.6,2.1,4.6,4.6C549.6,26.1,547.6,28.1,545,28.1z"/>
	<path fill="#44B6FF" d="M481,5.4c-10,0-18.1,8.1-18.1,18.1S471,41.6,481,41.6s18.1-8.1,18.1-18.1S491,5.4,481,5.4z M481,24.6
		c-0.6,0-1.1-0.5-1.1-1.1c0-0.6,0.5-1.1,1.1-1.1s1.1,0.5,1.1,1.1C482.1,24.1,481.6,24.6,481,24.6z"/>
	<g>
		<path fill="#CDD6DC" d="M28.5,27.5c0-0.2,0.1-0.3,0.2-0.5s0.3-0.2,0.4-0.3c0.1-0.1,0.2-0.1,0.2,0c0.7,1.2,1.7,1.8,3.2,2v-4.9
			c-0.5-0.1-1-0.3-1.4-0.4s-0.8-0.4-1.1-0.6c-0.4-0.3-0.7-0.6-0.9-1c-0.2-0.4-0.3-0.9-0.3-1.4c0-0.9,0.3-1.7,1-2.3
			c0.7-0.6,1.5-1,2.6-1.2v-1.1c0-0.4,0.2-0.6,0.5-0.6h0.1c0.3,0,0.5,0.2,0.5,0.6v1.1c1.1,0.1,1.9,0.4,2.6,0.8s1,0.9,1,1.4
			c0,0.2-0.1,0.3-0.2,0.5c-0.1,0.1-0.3,0.2-0.4,0.3c-0.1,0.1-0.2,0.1-0.2,0.1c-0.3-0.5-0.7-0.9-1.2-1.2c-0.5-0.3-1.1-0.5-1.8-0.6
			v4.7c0.6,0.1,1.1,0.3,1.5,0.4c0.4,0.2,0.8,0.4,1.2,0.6c0.4,0.3,0.7,0.6,1,1.1c0.2,0.4,0.3,0.9,0.3,1.5c0,0.9-0.4,1.7-1.1,2.4
			c-0.8,0.7-1.7,1-2.8,1.1v1.2c0,0.4-0.2,0.6-0.5,0.6h-0.1c-0.3,0-0.5-0.2-0.5-0.6V30c-1.1-0.1-2-0.4-2.8-1
			C28.8,28.5,28.5,28,28.5,27.5z M30.1,20.4c0,0.6,0.2,1.1,0.6,1.4c0.4,0.3,1,0.6,1.8,0.8v-4.4c-0.7,0.1-1.3,0.3-1.7,0.8
			C30.3,19.3,30.1,19.8,30.1,20.4z M33.5,28.8c0.8-0.1,1.5-0.3,2-0.7c0.5-0.4,0.8-0.9,0.8-1.6c0-0.6-0.2-1.1-0.7-1.5s-1.1-0.6-2-0.9
			V28.8z"/>
	</g>
	<circle fill="#44B6FF" cx="161" cy="23.5" r="6.6"/>
	<circle fill="#44B6FF" cx="225" cy="23.5" r="10.9"/>
	<g>
		<g>
			<line fill="none" stroke="#FFFFFF" stroke-linecap="round" stroke-miterlimit="10" x1="221.9" y1="25.3" x2="221.1" y2="25.8"/>
			<line fill="none" stroke="#FFFFFF" stroke-linecap="round" stroke-miterlimit="10" x1="228.9" y1="21.2" x2="228.1" y2="21.7"/>
		</g>
		<g>
			<line fill="none" stroke="#FFFFFF" stroke-linecap="round" stroke-miterlimit="10" x1="225" y1="27" x2="225" y2="28"/>
			<line fill="none" stroke="#FFFFFF" stroke-linecap="round" stroke-miterlimit="10" x1="225" y1="19" x2="225" y2="20"/>
		</g>
		<g>
			<line fill="none" stroke="#FFFFFF" stroke-linecap="round" stroke-miterlimit="10" x1="228.1" y1="25.3" x2="228.9" y2="25.8"/>
			<line fill="none" stroke="#FFFFFF" stroke-linecap="round" stroke-miterlimit="10" x1="221.1" y1="21.2" x2="221.9" y2="21.7"/>
		</g>
	</g>
	<circle fill="#44B6FF" cx="289" cy="23.5" r="14.6"/>
	<g>
		<g>
			<line fill="none" stroke="#FFFFFF" stroke-linecap="round" stroke-miterlimit="10" x1="284.2" y1="26.2" x2="283" y2="27"/>
			<line fill="none" stroke="#FFFFFF" stroke-linecap="round" stroke-miterlimit="10" x1="295" y1="20" x2="293.8" y2="20.8"/>
		</g>
		<g>
			<line fill="none" stroke="#FFFFFF" stroke-linecap="round" stroke-miterlimit="10" x1="289" y1="29" x2="289" y2="30.5"/>
			<line fill="none" stroke="#FFFFFF" stroke-linecap="round" stroke-miterlimit="10" x1="289" y1="16.5" x2="289" y2="18"/>
		</g>
		<g>
			<line fill="none" stroke="#FFFFFF" stroke-linecap="round" stroke-miterlimit="10" x1="293.8" y1="26.2" x2="295" y2="27"/>
			<line fill="none" stroke="#FFFFFF" stroke-linecap="round" stroke-miterlimit="10" x1="283" y1="20" x2="284.2" y2="20.8"/>
		</g>
	</g>
	<circle fill="#44B6FF" cx="353" cy="23.5" r="16.1"/>
	<g>
		<g>
			<line fill="none" stroke="#FFFFFF" stroke-linecap="round" stroke-miterlimit="10" x1="347" y1="27" x2="345.3" y2="27.9"/>
			<line fill="none" stroke="#FFFFFF" stroke-linecap="round" stroke-miterlimit="10" x1="360.7" y1="19.1" x2="359" y2="20"/>
		</g>
		<g>
			<line fill="none" stroke="#FFFFFF" stroke-linecap="round" stroke-miterlimit="10" x1="353" y1="30.4" x2="353" y2="32.3"/>
			<line fill="none" stroke="#FFFFFF" stroke-linecap="round" stroke-miterlimit="10" x1="353" y1="14.7" x2="353" y2="16.6"/>
		</g>
		<g>
			<line fill="none" stroke="#FFFFFF" stroke-linecap="round" stroke-miterlimit="10" x1="359" y1="27" x2="360.7" y2="27.9"/>
			<line fill="none" stroke="#FFFFFF" stroke-linecap="round" stroke-miterlimit="10" x1="345.3" y1="19.1" x2="347" y2="20"/>
		</g>
	</g>
	<circle fill="#44B6FF" cx="417" cy="23.5" r="17.2"/>
	<g>
		<g>
			<line fill="none" stroke="#FFFFFF" stroke-linecap="round" stroke-miterlimit="10" x1="409.8" y1="27.7" x2="407.8" y2="28.8"/>
			<line fill="none" stroke="#FFFFFF" stroke-linecap="round" stroke-miterlimit="10" x1="426.2" y1="18.2" x2="424.2" y2="19.3"/>
		</g>
		<g>
			<line fill="none" stroke="#FFFFFF" stroke-linecap="round" stroke-miterlimit="10" x1="417" y1="31.8" x2="417" y2="34.1"/>
			<line fill="none" stroke="#FFFFFF" stroke-linecap="round" stroke-miterlimit="10" x1="417" y1="12.9" x2="417" y2="15.2"/>
		</g>
		<g>
			<line fill="none" stroke="#FFFFFF" stroke-linecap="round" stroke-miterlimit="10" x1="424.2" y1="27.7" x2="426.2" y2="28.8"/>
			<line fill="none" stroke="#FFFFFF" stroke-linecap="round" stroke-miterlimit="10" x1="407.8" y1="18.2" x2="409.8" y2="19.3"/>
		</g>
	</g>
	<g>
		<g>
			<line fill="none" stroke="#FFFFFF" stroke-linecap="round" stroke-miterlimit="10" x1="472.4" y1="28.5" x2="470" y2="29.9"/>
			<line fill="none" stroke="#FFFFFF" stroke-linecap="round" stroke-miterlimit="10" x1="492" y1="17.1" x2="489.6" y2="18.5"/>
		</g>
		<g>
			<line fill="none" stroke="#FFFFFF" stroke-linecap="round" stroke-miterlimit="10" x1="481" y1="33.5" x2="481" y2="36.2"/>
			<line fill="none" stroke="#FFFFFF" stroke-linecap="round" stroke-miterlimit="10" x1="481" y1="10.8" x2="481" y2="13.5"/>
		</g>
		<g>
			<line fill="none" stroke="#FFFFFF" stroke-linecap="round" stroke-miterlimit="10" x1="489.6" y1="28.5" x2="492" y2="29.9"/>
			<line fill="none" stroke="#FFFFFF" stroke-linecap="round" stroke-miterlimit="10" x1="470" y1="17.1" x2="472.4" y2="18.5"/>
		</g>
	</g>
	<g>
		<g>
			<line fill="none" stroke="#FFFFFF" stroke-linecap="round" stroke-miterlimit="10" x1="535" y1="29.3" x2="532.3" y2="30.8"/>
			<line fill="none" stroke="#FFFFFF" stroke-linecap="round" stroke-miterlimit="10" x1="557.7" y1="16.2" x2="555" y2="17.7"/>
		</g>
		<g>
			<line fill="none" stroke="#FFFFFF" stroke-linecap="round" stroke-miterlimit="10" x1="545" y1="35" x2="545" y2="38.1"/>
			<line fill="none" stroke="#FFFFFF" stroke-linecap="round" stroke-miterlimit="10" x1="545" y1="8.9" x2="545" y2="12"/>
		</g>
		<g>
			<line fill="none" stroke="#FFFFFF" stroke-linecap="round" stroke-miterlimit="10" x1="555" y1="29.3" x2="557.7" y2="30.8"/>
			<line fill="none" stroke="#FFFFFF" stroke-linecap="round" stroke-miterlimit="10" x1="532.3" y1="16.2" x2="535" y2="17.7"/>
		</g>
	</g>
	<g>
		<g>
			<line fill="none" stroke="#FFFFFF" stroke-linecap="round" stroke-miterlimit="10" x1="598.1" y1="29.8" x2="595.1" y2="31.5"/>
			<line fill="none" stroke="#FFFFFF" stroke-linecap="round" stroke-miterlimit="10" x1="622.9" y1="15.5" x2="619.9" y2="17.2"/>
		</g>
		<g>
			<line fill="none" stroke="#FFFFFF" stroke-linecap="round" stroke-miterlimit="10" x1="609" y1="36.1" x2="609" y2="39.5"/>
			<line fill="none" stroke="#FFFFFF" stroke-linecap="round" stroke-miterlimit="10" x1="609" y1="7.5" x2="609" y2="10.9"/>
		</g>
		<g>
			<line fill="none" stroke="#FFFFFF" stroke-linecap="round" stroke-miterlimit="10" x1="619.9" y1="29.8" x2="622.9" y2="31.5"/>
			<line fill="none" stroke="#FFFFFF" stroke-linecap="round" stroke-miterlimit="10" x1="595.1" y1="15.5" x2="598.1" y2="17.2"/>
		</g>
	</g>
	<g>
		<g>
			<line fill="none" stroke="#FFFFFF" stroke-linecap="round" stroke-miterlimit="10" x1="659.9" y1="31.1" x2="656.3" y2="33.1"/>
			<line fill="none" stroke="#FFFFFF" stroke-linecap="round" stroke-miterlimit="10" x1="689.7" y1="13.9" x2="686.1" y2="15.9"/>
		</g>
		<g>
			<line fill="none" stroke="#FFFFFF" stroke-linecap="round" stroke-miterlimit="10" x1="673" y1="38.7" x2="673" y2="42.8"/>
			<line fill="none" stroke="#FFFFFF" stroke-linecap="round" stroke-miterlimit="10" x1="673" y1="4.2" x2="673" y2="8.3"/>
		</g>
		<g>
			<line fill="none" stroke="#FFFFFF" stroke-linecap="round" stroke-miterlimit="10" x1="686.1" y1="31.1" x2="689.7" y2="33.1"/>
			<line fill="none" stroke="#FFFFFF" stroke-linecap="round" stroke-miterlimit="10" x1="656.3" y1="13.9" x2="659.9" y2="15.9"/>
		</g>
	</g>
	<g>
		<g>
			<line fill="none" stroke="#FFFFFF" stroke-linecap="round" stroke-miterlimit="10" x1="721.2" y1="32.6" x2="716.9" y2="35.1"/>
			<line fill="none" stroke="#FFFFFF" stroke-linecap="round" stroke-miterlimit="10" x1="757.1" y1="11.9" x2="752.8" y2="14.4"/>
		</g>
		<g>
			<line fill="none" stroke="#FFFFFF" stroke-linecap="round" stroke-miterlimit="10" x1="737" y1="41.8" x2="737" y2="46.7"/>
			<line fill="none" stroke="#FFFFFF" stroke-linecap="round" stroke-miterlimit="10" x1="737" y1="0.3" x2="737" y2="5.2"/>
		</g>
		<g>
			<line fill="none" stroke="#FFFFFF" stroke-linecap="round" stroke-miterlimit="10" x1="752.8" y1="32.6" x2="757.1" y2="35.1"/>
			<line fill="none" stroke="#FFFFFF" stroke-linecap="round" stroke-miterlimit="10" x1="716.9" y1="11.9" x2="721.2" y2="14.4"/>
		</g>
	</g>
	<g>
		<g>
			<line fill="none" stroke="#FFFFFF" stroke-linecap="round" stroke-miterlimit="10" x1="783.7" y1="33.5" x2="779" y2="36.2"/>
			<line fill="none" stroke="#FFFFFF" stroke-linecap="round" stroke-miterlimit="10" x1="823" y1="10.8" x2="818.3" y2="13.5"/>
		</g>
		<g>
			<line fill="none" stroke="#FFFFFF" stroke-linecap="round" stroke-miterlimit="10" x1="801" y1="43.4" x2="801" y2="48.9"/>
			<line fill="none" stroke="#FFFFFF" stroke-linecap="round" stroke-miterlimit="10" x1="801" y1="-1.9" x2="801" y2="3.6"/>
		</g>
		<g>
			<line fill="none" stroke="#FFFFFF" stroke-linecap="round" stroke-miterlimit="10" x1="818.3" y1="33.5" x2="823" y2="36.2"/>
			<line fill="none" stroke="#FFFFFF" stroke-linecap="round" stroke-miterlimit="10" x1="779" y1="10.8" x2="783.7" y2="13.5"/>
		</g>
	</g>
	<g>
		<path fill="#44B6FF" d="M800.5,24C800.5,24,800.5,23.9,800.5,24C800.5,23.9,800.5,23.9,800.5,24C800.6,23.9,800.6,23.9,800.5,24
			c0.2,0,0.3,0.1,0.5,0.1v-0.6c-0.1,0-0.1,0-0.2,0c0,0-0.1,0-0.1-0.1c0,0-0.1-0.1-0.1-0.1c0,0,0-0.1,0-0.2c0-0.1,0-0.2,0.1-0.3
			c0.1-0.1,0.2-0.1,0.3-0.1v-0.1c0,0,0-0.1,0.1-0.1h0c0,0,0.1,0,0.1,0.1v0.1c0.1,0,0.2,0,0.3,0.1s0.1,0.1,0.1,0.2c0,0,0,0,0,0.1
			c0,0,0,0,0,0c0,0,0,0,0,0c0-0.1-0.1-0.1-0.1-0.1c-0.1,0-0.1-0.1-0.2-0.1v0.5c0.1,0,0.1,0,0.2,0.1c0,0,0.1,0,0.1,0.1
			c0,0,0.1,0.1,0.1,0.1c0,0.1,0,0.1,0,0.2c0,0.1,0,0.2-0.1,0.3c-0.1,0.1-0.2,0.1-0.3,0.1v0.1c0,0,0,0.1-0.1,0.1h0c0,0-0.1,0-0.1-0.1
			v-0.1c-0.1,0-0.2,0-0.3-0.1C800.5,24.1,800.5,24,800.5,24z M800.7,23.1c0,0.1,0,0.1,0.1,0.2c0,0,0.1,0.1,0.2,0.1v-0.5
			c-0.1,0-0.1,0-0.2,0.1C800.7,23,800.7,23.1,800.7,23.1z M801.1,24.1c0.1,0,0.2,0,0.2-0.1c0.1,0,0.1-0.1,0.1-0.2
			c0-0.1,0-0.1-0.1-0.2s-0.1-0.1-0.2-0.1V24.1z"/>
	</g>
	<g>
		<path fill="#44B6FF" d="M862.9,25.4c0-0.1,0-0.2,0.1-0.2s0.1-0.1,0.2-0.1c0.1,0,0.1,0,0.1,0c0.3,0.6,0.8,0.9,1.5,1v-2.3
			c-0.2-0.1-0.5-0.1-0.6-0.2s-0.4-0.2-0.5-0.3c-0.2-0.1-0.3-0.3-0.4-0.5c-0.1-0.2-0.1-0.4-0.1-0.7c0-0.4,0.2-0.8,0.5-1.1
			c0.3-0.3,0.7-0.5,1.2-0.6v-0.5c0-0.2,0.1-0.3,0.3-0.3h0.1c0.2,0,0.2,0.1,0.2,0.3v0.5c0.5,0,0.9,0.2,1.2,0.4s0.5,0.4,0.5,0.6
			c0,0.1,0,0.2-0.1,0.2c-0.1,0.1-0.1,0.1-0.2,0.1c-0.1,0-0.1,0-0.1,0c-0.1-0.2-0.3-0.4-0.6-0.6c-0.2-0.2-0.5-0.2-0.8-0.3v2.2
			c0.3,0.1,0.5,0.1,0.7,0.2c0.2,0.1,0.4,0.2,0.6,0.3c0.2,0.1,0.3,0.3,0.5,0.5c0.1,0.2,0.2,0.4,0.2,0.7c0,0.4-0.2,0.8-0.5,1.1
			c-0.4,0.3-0.8,0.5-1.3,0.5v0.5c0,0.2-0.1,0.3-0.2,0.3H865c-0.2,0-0.2-0.1-0.2-0.3v-0.6c-0.5,0-1-0.2-1.3-0.4
			C863,25.9,862.9,25.6,862.9,25.4z M863.6,22c0,0.3,0.1,0.5,0.3,0.7c0.2,0.1,0.5,0.3,0.9,0.4V21c-0.3,0-0.6,0.2-0.8,0.4
			C863.7,21.5,863.6,21.7,863.6,22z M865.2,26c0.4,0,0.7-0.1,0.9-0.3c0.2-0.2,0.4-0.4,0.4-0.7c0-0.3-0.1-0.5-0.3-0.7
			c-0.2-0.2-0.5-0.3-1-0.4V26z"/>
	</g>
	<g>
		<path fill="#44B6FF" d="M925.9,26.3c0-0.1,0-0.2,0.1-0.3s0.2-0.2,0.3-0.2c0.1,0,0.1-0.1,0.1,0c0.5,0.8,1.2,1.3,2.2,1.4v-3.4
			c-0.4-0.1-0.7-0.2-0.9-0.3c-0.3-0.1-0.5-0.3-0.8-0.4c-0.3-0.2-0.5-0.4-0.6-0.7c-0.1-0.3-0.2-0.6-0.2-1c0-0.6,0.2-1.2,0.7-1.6
			c0.5-0.4,1.1-0.7,1.8-0.8v-0.8c0-0.3,0.1-0.4,0.4-0.4h0.1c0.2,0,0.4,0.1,0.4,0.4v0.8c0.7,0.1,1.3,0.2,1.8,0.6s0.7,0.6,0.7,1
			c0,0.1,0,0.2-0.1,0.3c-0.1,0.1-0.2,0.2-0.3,0.2c-0.1,0-0.1,0.1-0.1,0c-0.2-0.3-0.5-0.6-0.8-0.8c-0.4-0.2-0.8-0.4-1.2-0.4V23
			c0.4,0.1,0.7,0.2,1,0.3c0.3,0.1,0.6,0.3,0.9,0.5c0.3,0.2,0.5,0.4,0.7,0.7c0.2,0.3,0.2,0.7,0.2,1c0,0.7-0.3,1.2-0.8,1.7
			c-0.5,0.5-1.2,0.7-2,0.8v0.8c0,0.3-0.1,0.4-0.4,0.4h-0.1c-0.2,0-0.4-0.1-0.4-0.4V28c-0.8-0.1-1.4-0.3-1.9-0.7
			C926.1,27,925.9,26.6,925.9,26.3z M927,21.3c0,0.4,0.1,0.7,0.4,1c0.3,0.2,0.7,0.4,1.3,0.6v-3.1c-0.5,0.1-0.9,0.2-1.2,0.5
			C927.2,20.6,927,20.9,927,21.3z M929.3,27.2c0.6,0,1-0.2,1.4-0.5c0.4-0.3,0.5-0.7,0.5-1.1c0-0.5-0.2-0.8-0.5-1
			c-0.3-0.2-0.8-0.4-1.4-0.6V27.2z"/>
	</g>
	<g>
		<path fill="#44B6FF" d="M988.9,27.2c0-0.2,0.1-0.3,0.2-0.4c0.1-0.1,0.2-0.2,0.3-0.3c0.1-0.1,0.2-0.1,0.2,0
			c0.6,1.1,1.6,1.7,2.9,1.8v-4.4c-0.5-0.1-0.9-0.2-1.2-0.4c-0.3-0.1-0.7-0.3-1-0.6c-0.3-0.2-0.6-0.5-0.8-0.9
			c-0.2-0.4-0.3-0.8-0.3-1.3c0-0.8,0.3-1.5,0.9-2.1c0.6-0.6,1.4-0.9,2.3-1.1v-1c0-0.4,0.2-0.5,0.5-0.5h0.1c0.3,0,0.5,0.2,0.5,0.5v1
			c1,0.1,1.7,0.3,2.4,0.7s0.9,0.8,0.9,1.2c0,0.2-0.1,0.3-0.2,0.4c-0.1,0.1-0.2,0.2-0.3,0.3c-0.1,0.1-0.2,0.1-0.2,0
			c-0.2-0.4-0.6-0.8-1.1-1.1c-0.5-0.3-1-0.5-1.6-0.5v4.2c0.5,0.1,1,0.2,1.3,0.4c0.4,0.1,0.7,0.3,1.1,0.6c0.4,0.2,0.7,0.6,0.9,1
			c0.2,0.4,0.3,0.8,0.3,1.4c0,0.8-0.3,1.6-1,2.2c-0.7,0.6-1.5,0.9-2.6,1v1c0,0.4-0.2,0.5-0.5,0.6h-0.1c-0.3,0-0.5-0.2-0.5-0.6v-1.1
			c-1-0.1-1.8-0.4-2.5-0.9C989.2,28,988.9,27.6,988.9,27.2z M990.4,20.7c0,0.6,0.2,1,0.5,1.3c0.4,0.3,0.9,0.5,1.6,0.7v-4
			c-0.6,0.1-1.1,0.3-1.6,0.7C990.6,19.7,990.4,20.2,990.4,20.7z M993.4,28.3c0.7,0,1.3-0.3,1.8-0.6c0.5-0.4,0.7-0.9,0.7-1.4
			c0-0.6-0.2-1-0.6-1.3s-1-0.6-1.8-0.8V28.3z"/>
	</g>
	<path fill="#44B6FF" d="M1057,3.1c-11.3,0-20.4,9.1-20.4,20.4s9.1,20.4,20.4,20.4c11.3,0,20.4-9.1,20.4-20.4S1068.3,3.1,1057,3.1z
		 M1057,43.6c-11.1,0-20.1-9-20.1-20.1s9-20.1,20.1-20.1s20.1,9,20.1,20.1S1068.1,43.6,1057,43.6z"/>
	<g>
		<path fill="#44B6FF" d="M1052,27.9c0-0.2,0.1-0.4,0.2-0.5c0.1-0.1,0.3-0.3,0.4-0.3c0.1-0.1,0.2-0.1,0.2,0c0.7,1.3,1.9,2,3.5,2.2
			V24c-0.6-0.1-1.1-0.3-1.5-0.5s-0.8-0.4-1.3-0.7c-0.4-0.3-0.7-0.7-0.9-1.1c-0.2-0.5-0.3-1-0.3-1.6c0-1,0.4-1.8,1.1-2.5
			c0.8-0.7,1.7-1.1,2.8-1.3V15c0-0.4,0.2-0.7,0.6-0.7h0.1c0.4,0,0.6,0.2,0.6,0.7v1.2c1.2,0.1,2.1,0.4,2.9,0.9s1.1,1,1.1,1.5
			c0,0.2-0.1,0.4-0.2,0.5c-0.1,0.1-0.3,0.3-0.4,0.3c-0.1,0.1-0.2,0.1-0.2,0.1c-0.3-0.5-0.7-1-1.3-1.3c-0.6-0.3-1.2-0.6-1.9-0.7v5.2
			c0.6,0.1,1.2,0.3,1.6,0.5c0.4,0.2,0.9,0.4,1.4,0.7c0.5,0.3,0.8,0.7,1,1.2c0.2,0.5,0.4,1,0.4,1.7c0,1-0.4,1.9-1.2,2.6
			c-0.8,0.7-1.9,1.2-3.1,1.3V32c0,0.4-0.2,0.7-0.6,0.7h-0.1c-0.4,0-0.6-0.2-0.6-0.7v-1.3c-1.2-0.1-2.2-0.5-3.1-1
			C1052.4,29,1052,28.5,1052,27.9z M1053.8,20.1c0,0.7,0.2,1.2,0.6,1.5c0.4,0.3,1.1,0.6,2,0.9v-4.9c-0.8,0.1-1.4,0.4-1.9,0.8
			C1054.1,18.9,1053.8,19.4,1053.8,20.1z M1057.5,29.3c0.9-0.1,1.6-0.3,2.2-0.8c0.6-0.5,0.8-1,0.8-1.7c0-0.7-0.3-1.3-0.8-1.6
			c-0.5-0.4-1.3-0.7-2.2-1V29.3z"/>
	</g>
	<g>
		<path fill="#44B6FF" d="M1115.1,28.7c0-0.2,0.1-0.4,0.2-0.6c0.2-0.2,0.3-0.3,0.5-0.4c0.2-0.1,0.3-0.1,0.3-0.1
			c0.9,1.5,2.3,2.4,4.1,2.6V24c-0.7-0.2-1.3-0.3-1.8-0.6s-1-0.5-1.5-0.8c-0.5-0.3-0.9-0.8-1.1-1.3c-0.3-0.5-0.4-1.1-0.4-1.9
			c0-1.2,0.4-2.1,1.3-3c0.9-0.8,2-1.3,3.3-1.5v-1.4c0-0.5,0.2-0.8,0.7-0.8h0.2c0.4,0,0.7,0.3,0.7,0.8V15c1.4,0.1,2.5,0.5,3.4,1.1
			c0.9,0.6,1.3,1.2,1.3,1.8c0,0.2-0.1,0.4-0.2,0.6c-0.2,0.2-0.3,0.3-0.5,0.4c-0.2,0.1-0.3,0.1-0.3,0.1c-0.4-0.6-0.9-1.1-1.5-1.5
			c-0.7-0.4-1.4-0.7-2.3-0.8v6.1c0.7,0.2,1.4,0.4,1.9,0.6c0.5,0.2,1.1,0.5,1.6,0.8c0.5,0.3,0.9,0.8,1.2,1.4c0.3,0.6,0.4,1.2,0.4,2
			c0,1.2-0.5,2.3-1.5,3.1c-1,0.9-2.2,1.4-3.7,1.5v1.5c0,0.5-0.2,0.8-0.7,0.8h-0.2c-0.4,0-0.7-0.3-0.7-0.8v-1.5
			c-1.4-0.1-2.6-0.5-3.6-1.2C1115.6,30,1115.1,29.3,1115.1,28.7z M1117.3,19.5c0,0.8,0.3,1.4,0.8,1.8c0.5,0.4,1.3,0.7,2.3,1v-5.7
			c-0.9,0.1-1.6,0.4-2.2,1C1117.6,18.1,1117.3,18.7,1117.3,19.5z M1121.6,30.4c1-0.1,1.9-0.4,2.5-0.9c0.7-0.6,1-1.2,1-2
			c0-0.8-0.3-1.5-0.9-1.9c-0.6-0.4-1.5-0.8-2.6-1.1V30.4z"/>
	</g>
	<g>
		<path fill="#44B6FF" d="M1178.2,29.5c0-0.3,0.1-0.5,0.3-0.7c0.2-0.2,0.4-0.3,0.6-0.4c0.2-0.1,0.3-0.1,0.3-0.1c1,1.7,2.6,2.8,4.8,3
			v-7.3c-0.8-0.2-1.5-0.4-2-0.6s-1.1-0.6-1.7-1c-0.6-0.4-1-0.9-1.3-1.5c-0.3-0.6-0.4-1.3-0.4-2.1c0-1.3,0.5-2.5,1.5-3.4
			c1-1,2.3-1.5,3.9-1.7V12c0-0.6,0.3-0.9,0.8-0.9h0.2c0.5,0,0.8,0.3,0.8,0.9v1.6c1.6,0.1,2.9,0.5,3.9,1.2c1,0.7,1.6,1.4,1.6,2
			c0,0.3-0.1,0.5-0.3,0.7c-0.2,0.2-0.4,0.3-0.6,0.4c-0.2,0.1-0.3,0.1-0.3,0.1c-0.4-0.7-1-1.3-1.8-1.8c-0.8-0.5-1.6-0.8-2.6-0.9v7
			c0.9,0.2,1.6,0.4,2.2,0.7c0.6,0.2,1.2,0.6,1.8,1c0.6,0.4,1.1,0.9,1.4,1.6c0.3,0.7,0.5,1.4,0.5,2.3c0,1.4-0.6,2.6-1.7,3.6
			c-1.1,1-2.5,1.6-4.2,1.7V35c0,0.6-0.3,0.9-0.8,0.9h-0.2c-0.5,0-0.8-0.3-0.8-0.9v-1.8c-1.7-0.2-3-0.6-4.2-1.4
			C1178.8,31,1178.2,30.2,1178.2,29.5z M1180.7,18.8c0,0.9,0.3,1.6,0.9,2.1c0.6,0.5,1.5,0.9,2.7,1.2v-6.6c-1,0.1-1.9,0.5-2.6,1.1
			C1181,17.2,1180.7,18,1180.7,18.8z M1185.7,31.4c1.2-0.1,2.2-0.4,2.9-1.1c0.8-0.6,1.1-1.4,1.1-2.3c0-1-0.4-1.7-1.1-2.2
			c-0.7-0.5-1.7-1-3-1.3V31.4z"/>
	</g>
	<g>
		<path fill="#44B6FF" d="M1241.2,30.4c0-0.3,0.1-0.6,0.3-0.8c0.2-0.2,0.4-0.4,0.7-0.5c0.2-0.1,0.3-0.1,0.4-0.1c1.2,2,3,3.2,5.5,3.5
			v-8.3c-0.9-0.2-1.7-0.5-2.3-0.7c-0.7-0.3-1.3-0.6-2-1.1c-0.7-0.5-1.1-1-1.5-1.7c-0.3-0.7-0.5-1.5-0.5-2.5c0-1.5,0.6-2.8,1.8-3.9
			c1.2-1.1,2.7-1.8,4.4-2v-1.9c0-0.7,0.3-1,0.9-1h0.2c0.6,0,0.9,0.3,0.9,1v1.9c1.8,0.1,3.3,0.6,4.5,1.4c1.2,0.8,1.8,1.6,1.8,2.3
			c0,0.3-0.1,0.6-0.3,0.8c-0.2,0.2-0.4,0.4-0.7,0.5c-0.2,0.1-0.3,0.1-0.4,0.1c-0.5-0.8-1.1-1.5-2-2c-0.9-0.5-1.9-0.9-3-1v8.1
			c1,0.2,1.8,0.5,2.5,0.8c0.7,0.3,1.4,0.7,2.1,1.1c0.7,0.5,1.3,1.1,1.6,1.8c0.4,0.7,0.6,1.6,0.6,2.6c0,1.6-0.6,3-1.9,4.1
			c-1.3,1.1-2.9,1.8-4.9,2v2c0,0.7-0.3,1-0.9,1h-0.2c-0.6,0-0.9-0.3-0.9-1v-2c-1.9-0.2-3.5-0.7-4.8-1.6
			C1241.9,32.1,1241.2,31.2,1241.2,30.4z M1244.1,18.1c0,1,0.3,1.8,1,2.4c0.7,0.5,1.7,1,3.1,1.4v-7.6c-1.2,0.2-2.2,0.6-2.9,1.3
			C1244.4,16.3,1244.1,17.2,1244.1,18.1z M1249.8,32.6c1.4-0.1,2.5-0.5,3.4-1.2c0.9-0.7,1.3-1.6,1.3-2.7c0-1.1-0.4-2-1.2-2.6
			c-0.8-0.6-2-1.1-3.5-1.5V32.6z"/>
	</g>
	<g>
		<path fill="#44B6FF" d="M1304.6,31c0-0.3,0.1-0.6,0.3-0.9s0.5-0.4,0.7-0.5c0.2-0.1,0.4-0.1,0.4-0.1c1.3,2.2,3.2,3.4,6,3.8v-9.1
			c-1-0.2-1.8-0.5-2.5-0.8c-0.7-0.3-1.4-0.7-2.1-1.2c-0.7-0.5-1.2-1.1-1.6-1.9c-0.4-0.8-0.5-1.7-0.5-2.7c0-1.7,0.6-3.1,1.9-4.3
			c1.3-1.2,2.9-1.9,4.8-2.2V9.2c0-0.7,0.3-1.1,1-1.1h0.2c0.6,0,0.9,0.4,0.9,1.1v2c2,0.1,3.6,0.7,4.9,1.5s1.9,1.7,1.9,2.5
			c0,0.3-0.1,0.6-0.3,0.9c-0.2,0.2-0.5,0.4-0.7,0.5c-0.2,0.1-0.4,0.1-0.4,0.1c-0.5-0.9-1.2-1.6-2.2-2.2c-1-0.6-2-1-3.3-1.1v8.7
			c1.1,0.2,2,0.5,2.7,0.8c0.8,0.3,1.5,0.7,2.3,1.2c0.8,0.5,1.4,1.2,1.8,2c0.4,0.8,0.6,1.8,0.6,2.8c0,1.7-0.7,3.2-2.1,4.5
			c-1.4,1.2-3.2,2-5.3,2.1v2.2c0,0.7-0.3,1.1-1,1.1h-0.2c-0.6,0-1-0.4-1-1.1v-2.2c-2.1-0.2-3.8-0.8-5.2-1.8
			C1305.3,32.8,1304.6,31.9,1304.6,31z M1307.6,17.7c0,1.1,0.4,2,1.1,2.6c0.7,0.6,1.8,1.1,3.4,1.5v-8.2c-1.3,0.2-2.4,0.6-3.2,1.4
			C1308.1,15.7,1307.6,16.6,1307.6,17.7z M1313.9,33.4c1.5-0.1,2.7-0.5,3.7-1.3c0.9-0.8,1.4-1.8,1.4-2.9c0-1.2-0.4-2.1-1.3-2.8
			c-0.9-0.6-2.1-1.2-3.8-1.6V33.4z"/>
	</g>
	<g>
		<path fill="#44B6FF" d="M1368.1,31.4c0-0.3,0.1-0.6,0.4-0.9c0.2-0.3,0.5-0.5,0.7-0.6c0.3-0.1,0.4-0.1,0.4-0.1
			c1.3,2.3,3.4,3.6,6.3,4v-9.5c-1-0.3-1.9-0.5-2.6-0.8c-0.7-0.3-1.5-0.7-2.2-1.3c-0.7-0.5-1.3-1.2-1.7-2c-0.4-0.8-0.6-1.7-0.6-2.8
			c0-1.7,0.7-3.2,2-4.5c1.3-1.3,3-2,5.1-2.3V8.5c0-0.8,0.3-1.2,1-1.2h0.3c0.7,0,1,0.4,1,1.2v2.1c2.1,0.2,3.8,0.7,5.1,1.6
			c1.4,0.9,2,1.8,2,2.7c0,0.3-0.1,0.6-0.4,0.9c-0.2,0.3-0.5,0.5-0.7,0.6c-0.3,0.1-0.4,0.2-0.4,0.1c-0.5-0.9-1.3-1.7-2.3-2.3
			c-1-0.6-2.1-1-3.4-1.2v9.2c1.1,0.2,2.1,0.5,2.9,0.9c0.8,0.3,1.6,0.7,2.4,1.3c0.8,0.5,1.4,1.2,1.9,2.1c0.4,0.9,0.6,1.8,0.6,3
			c0,1.8-0.7,3.4-2.2,4.7c-1.5,1.3-3.3,2.1-5.5,2.2v2.3c0,0.8-0.3,1.2-1,1.2h-0.3c-0.7,0-1-0.4-1-1.2v-2.3c-2.2-0.2-4-0.8-5.5-1.9
			C1368.9,33.3,1368.1,32.3,1368.1,31.4z M1371.4,17.4c0,1.2,0.4,2.1,1.2,2.7c0.8,0.6,1.9,1.1,3.5,1.6V13c-1.4,0.2-2.5,0.7-3.4,1.5
			C1371.8,15.3,1371.4,16.3,1371.4,17.4z M1378,33.9c1.6-0.1,2.8-0.6,3.8-1.4c1-0.8,1.5-1.8,1.5-3c0-1.3-0.5-2.2-1.4-2.9
			c-0.9-0.7-2.2-1.2-3.9-1.7V33.9z"/>
	</g>
	<g>
		<path fill="#44B6FF" d="M1431.4,32.1c0-0.4,0.1-0.7,0.4-1c0.3-0.3,0.5-0.5,0.8-0.6c0.3-0.1,0.4-0.2,0.5-0.1
			c1.4,2.5,3.7,3.9,6.8,4.3V24.4c-1.1-0.3-2.1-0.6-2.9-0.9c-0.8-0.3-1.6-0.8-2.4-1.4c-0.8-0.6-1.4-1.3-1.8-2.2
			c-0.4-0.9-0.6-1.9-0.6-3c0-1.9,0.7-3.5,2.2-4.9c1.5-1.4,3.3-2.2,5.5-2.5V7.2c0-0.8,0.4-1.3,1.1-1.3h0.3c0.7,0,1.1,0.4,1.1,1.3v2.3
			c2.2,0.2,4.1,0.7,5.6,1.8s2.2,2,2.2,2.9c0,0.4-0.1,0.7-0.4,1c-0.3,0.3-0.5,0.5-0.8,0.6c-0.3,0.1-0.4,0.2-0.5,0.1
			c-0.6-1-1.4-1.8-2.5-2.5c-1.1-0.7-2.3-1.1-3.7-1.3v9.9c1.2,0.3,2.3,0.6,3.1,0.9c0.9,0.4,1.7,0.8,2.6,1.4c0.9,0.6,1.6,1.3,2,2.2
			c0.5,0.9,0.7,2,0.7,3.2c0,2-0.8,3.7-2.4,5.1c-1.6,1.4-3.6,2.2-6,2.4v2.5c0,0.8-0.4,1.3-1.1,1.3h-0.3c-0.7,0-1.1-0.4-1.1-1.3v-2.5
			c-2.3-0.2-4.3-0.9-5.9-2C1432.2,34.1,1431.4,33.1,1431.4,32.1z M1434.9,16.9c0,1.3,0.4,2.3,1.2,2.9c0.8,0.7,2.1,1.2,3.8,1.7v-9.4
			c-1.5,0.2-2.7,0.7-3.6,1.6C1435.4,14.6,1434.9,15.7,1434.9,16.9z M1442,34.7c1.7-0.1,3.1-0.6,4.2-1.5c1.1-0.9,1.6-2,1.6-3.3
			c0-1.4-0.5-2.4-1.5-3.2c-1-0.7-2.4-1.3-4.3-1.8V34.7z"/>
	</g>
	<g>
		<path fill="#44B6FF" d="M1495.4,32.1c0-0.4,0.1-0.7,0.4-1c0.3-0.3,0.5-0.5,0.8-0.6c0.3-0.1,0.4-0.2,0.5-0.1
			c1.4,2.5,3.7,3.9,6.8,4.3V24.4c-1.1-0.3-2.1-0.6-2.9-0.9c-0.8-0.3-1.6-0.8-2.4-1.4c-0.8-0.6-1.4-1.3-1.8-2.2
			c-0.4-0.9-0.6-1.9-0.6-3c0-1.9,0.7-3.5,2.2-4.9c1.5-1.4,3.3-2.2,5.5-2.5V7.2c0-0.8,0.4-1.3,1.1-1.3h0.3c0.7,0,1.1,0.4,1.1,1.3v2.3
			c2.2,0.2,4.1,0.7,5.6,1.8s2.2,2,2.2,2.9c0,0.4-0.1,0.7-0.4,1c-0.3,0.3-0.5,0.5-0.8,0.6c-0.3,0.1-0.4,0.2-0.5,0.1
			c-0.6-1-1.4-1.8-2.5-2.5c-1.1-0.7-2.3-1.1-3.7-1.3v9.9c1.2,0.3,2.3,0.6,3.1,0.9c0.9,0.4,1.7,0.8,2.6,1.4c0.9,0.6,1.6,1.3,2,2.2
			c0.5,0.9,0.7,2,0.7,3.2c0,2-0.8,3.7-2.4,5.1c-1.6,1.4-3.6,2.2-6,2.4v2.5c0,0.8-0.4,1.3-1.1,1.3h-0.3c-0.7,0-1.1-0.4-1.1-1.3v-2.5
			c-2.3-0.2-4.3-0.9-5.9-2C1496.2,34.1,1495.4,33.1,1495.4,32.1z M1498.9,16.9c0,1.3,0.4,2.3,1.2,2.9c0.8,0.7,2.1,1.2,3.8,1.7v-9.4
			c-1.5,0.2-2.7,0.7-3.6,1.6C1499.4,14.6,1498.9,15.7,1498.9,16.9z M1506,34.7c1.7-0.1,3.1-0.6,4.2-1.5c1.1-0.9,1.6-2,1.6-3.3
			c0-1.4-0.5-2.4-1.5-3.2c-1-0.7-2.4-1.3-4.3-1.8V34.7z"/>
	</g>
	<g>
		<path fill="#44B6FF" d="M1559.8,31.8c0-0.4,0.1-0.7,0.4-0.9c0.3-0.3,0.5-0.5,0.8-0.6c0.3-0.1,0.4-0.2,0.4-0.1
			c1.4,2.4,3.6,3.8,6.5,4.2v-9.9c-1.1-0.3-2-0.6-2.8-0.9s-1.6-0.8-2.3-1.3c-0.8-0.5-1.4-1.2-1.8-2.1c-0.4-0.8-0.6-1.8-0.6-2.9
			c0-1.8,0.7-3.4,2.1-4.7c1.4-1.3,3.2-2.1,5.3-2.4V7.8c0-0.8,0.4-1.2,1.1-1.2h0.3c0.7,0,1,0.4,1,1.2V10c2.2,0.2,4,0.7,5.4,1.7
			c1.4,1,2.1,1.9,2.1,2.8c0,0.4-0.1,0.7-0.4,0.9c-0.3,0.3-0.5,0.5-0.8,0.6c-0.3,0.1-0.4,0.2-0.4,0.1c-0.6-1-1.4-1.8-2.4-2.4
			c-1-0.6-2.2-1.1-3.6-1.2v9.6c1.2,0.3,2.2,0.6,3,0.9c0.8,0.3,1.7,0.8,2.5,1.3c0.9,0.5,1.5,1.3,1.9,2.2c0.4,0.9,0.7,1.9,0.7,3.1
			c0,1.9-0.8,3.6-2.3,4.9c-1.5,1.4-3.5,2.1-5.8,2.3v2.4c0,0.8-0.4,1.2-1.1,1.2h-0.3c-0.7,0-1-0.4-1.1-1.2v-2.4
			c-2.3-0.2-4.2-0.9-5.7-1.9C1560.5,33.8,1559.8,32.7,1559.8,31.8z M1563.1,17.1c0,1.2,0.4,2.2,1.2,2.8c0.8,0.6,2,1.2,3.7,1.6v-9
			c-1.4,0.2-2.6,0.7-3.5,1.5C1563.6,14.9,1563.1,15.9,1563.1,17.1z M1570,34.3c1.6-0.1,3-0.6,4-1.5c1-0.9,1.6-1.9,1.6-3.2
			c0-1.3-0.5-2.3-1.4-3.1c-1-0.7-2.3-1.3-4.1-1.8V34.3z"/>
	</g>
	<g>
		<path fill="#44B6FF" d="M1623.8,31.8c0-0.4,0.1-0.7,0.4-0.9c0.3-0.3,0.5-0.5,0.8-0.6c0.3-0.1,0.4-0.2,0.4-0.1
			c1.4,2.4,3.6,3.8,6.5,4.2v-9.9c-1.1-0.3-2-0.6-2.8-0.9s-1.6-0.8-2.3-1.3c-0.8-0.5-1.4-1.2-1.8-2.1c-0.4-0.8-0.6-1.8-0.6-2.9
			c0-1.8,0.7-3.4,2.1-4.7c1.4-1.3,3.2-2.1,5.3-2.4V7.8c0-0.8,0.4-1.2,1.1-1.2h0.3c0.7,0,1,0.4,1,1.2V10c2.2,0.2,4,0.7,5.4,1.7
			c1.4,1,2.1,1.9,2.1,2.8c0,0.4-0.1,0.7-0.4,0.9c-0.3,0.3-0.5,0.5-0.8,0.6c-0.3,0.1-0.4,0.2-0.4,0.1c-0.6-1-1.4-1.8-2.4-2.4
			c-1-0.6-2.2-1.1-3.6-1.2v9.6c1.2,0.3,2.2,0.6,3,0.9c0.8,0.3,1.7,0.8,2.5,1.3c0.9,0.5,1.5,1.3,1.9,2.2c0.4,0.9,0.7,1.9,0.7,3.1
			c0,1.9-0.8,3.6-2.3,4.9c-1.5,1.4-3.5,2.1-5.8,2.3v2.4c0,0.8-0.4,1.2-1.1,1.2h-0.3c-0.7,0-1-0.4-1.1-1.2v-2.4
			c-2.3-0.2-4.2-0.9-5.7-1.9C1624.5,33.8,1623.8,32.7,1623.8,31.8z M1627.1,17.1c0,1.2,0.4,2.2,1.2,2.8c0.8,0.6,2,1.2,3.7,1.6v-9
			c-1.4,0.2-2.6,0.7-3.5,1.5C1627.6,14.9,1627.1,15.9,1627.1,17.1z M1634,34.3c1.6-0.1,3-0.6,4-1.5c1-0.9,1.6-1.9,1.6-3.2
			c0-1.3-0.5-2.3-1.4-3.1c-1-0.7-2.3-1.3-4.1-1.8V34.3z"/>
	</g>
	<g>
		<path fill="#44B6FF" d="M1688,31.5c0-0.3,0.1-0.6,0.4-0.9c0.2-0.3,0.5-0.5,0.8-0.6c0.3-0.1,0.4-0.1,0.4-0.1c1.3,2.3,3.5,3.7,6.4,4
			v-9.7c-1-0.3-1.9-0.5-2.7-0.9c-0.8-0.3-1.5-0.7-2.3-1.3c-0.8-0.5-1.3-1.2-1.7-2c-0.4-0.8-0.6-1.8-0.6-2.9c0-1.8,0.7-3.3,2-4.6
			c1.4-1.3,3.1-2.1,5.1-2.3V8.2c0-0.8,0.4-1.2,1.1-1.2h0.3c0.7,0,1,0.4,1,1.2v2.2c2.1,0.2,3.8,0.7,5.2,1.6c1.4,0.9,2.1,1.9,2.1,2.7
			c0,0.3-0.1,0.6-0.4,0.9c-0.2,0.3-0.5,0.5-0.8,0.6c-0.3,0.1-0.4,0.2-0.4,0.1c-0.5-0.9-1.3-1.7-2.3-2.4c-1-0.6-2.2-1-3.5-1.2v9.3
			c1.1,0.3,2.1,0.5,2.9,0.9c0.8,0.3,1.6,0.8,2.5,1.3c0.8,0.5,1.5,1.2,1.9,2.1c0.4,0.9,0.6,1.9,0.6,3c0,1.9-0.7,3.5-2.2,4.8
			c-1.5,1.3-3.4,2.1-5.6,2.3v2.3c0,0.8-0.3,1.2-1,1.2h-0.3c-0.7,0-1-0.4-1-1.2v-2.4c-2.2-0.2-4.1-0.8-5.5-1.9
			C1688.7,33.5,1688,32.5,1688,31.5z M1691.3,17.3c0,1.2,0.4,2.1,1.2,2.8c0.8,0.6,2,1.2,3.6,1.6v-8.8c-1.4,0.2-2.5,0.7-3.4,1.5
			C1691.7,15.2,1691.3,16.2,1691.3,17.3z M1698,34c1.6-0.1,2.9-0.6,3.9-1.4c1-0.8,1.5-1.9,1.5-3.1c0-1.3-0.5-2.3-1.4-3
			c-0.9-0.7-2.3-1.3-4-1.7V34z"/>
	</g>
	<g>
		<path fill="#44B6FF" d="M1752.3,31.2c0-0.3,0.1-0.6,0.4-0.9c0.2-0.3,0.5-0.4,0.7-0.6c0.3-0.1,0.4-0.1,0.4-0.1
			c1.3,2.2,3.3,3.5,6.1,3.9v-9.3c-1-0.2-1.9-0.5-2.6-0.8c-0.7-0.3-1.5-0.7-2.2-1.2c-0.7-0.5-1.3-1.2-1.6-1.9
			c-0.4-0.8-0.6-1.7-0.6-2.8c0-1.7,0.7-3.2,2-4.4c1.3-1.2,3-2,5-2.2V8.8c0-0.8,0.3-1.1,1-1.2h0.3c0.6,0,1,0.4,1,1.2v2.1
			c2,0.1,3.7,0.7,5,1.6s2,1.8,2,2.6c0,0.3-0.1,0.6-0.4,0.9c-0.2,0.3-0.5,0.4-0.7,0.6c-0.3,0.1-0.4,0.1-0.4,0.1
			c-0.5-0.9-1.3-1.7-2.3-2.3c-1-0.6-2.1-1-3.4-1.2v9c1.1,0.2,2,0.5,2.8,0.8c0.8,0.3,1.6,0.7,2.4,1.2c0.8,0.5,1.4,1.2,1.8,2
			c0.4,0.8,0.6,1.8,0.6,2.9c0,1.8-0.7,3.3-2.2,4.6c-1.4,1.3-3.2,2-5.4,2.2v2.2c0,0.8-0.3,1.2-1,1.2h-0.3c-0.6,0-1-0.4-1-1.2v-2.3
			c-2.1-0.2-3.9-0.8-5.3-1.8C1753,33.1,1752.3,32.1,1752.3,31.2z M1755.5,17.5c0,1.2,0.4,2.1,1.1,2.7c0.8,0.6,1.9,1.1,3.5,1.5v-8.5
			c-1.3,0.2-2.4,0.7-3.3,1.4C1755.9,15.5,1755.5,16.4,1755.5,17.5z M1761.9,33.7c1.5-0.1,2.8-0.6,3.8-1.4c1-0.8,1.5-1.8,1.5-3
			c0-1.2-0.5-2.2-1.4-2.9c-0.9-0.7-2.2-1.2-3.9-1.7V33.7z"/>
	</g>
	<g>
		<path fill="#44B6FF" d="M1816.8,30.8c0-0.3,0.1-0.6,0.3-0.8c0.2-0.2,0.5-0.4,0.7-0.5c0.2-0.1,0.4-0.1,0.4-0.1
			c1.2,2.1,3.2,3.4,5.8,3.7v-8.8c-0.9-0.2-1.8-0.5-2.5-0.8c-0.7-0.3-1.4-0.7-2.1-1.2c-0.7-0.5-1.2-1.1-1.6-1.8
			c-0.4-0.7-0.5-1.6-0.5-2.6c0-1.6,0.6-3,1.9-4.2c1.2-1.2,2.8-1.9,4.7-2.1v-2c0-0.7,0.3-1.1,1-1.1h0.2c0.6,0,0.9,0.4,0.9,1.1v2
			c1.9,0.1,3.5,0.6,4.8,1.5c1.3,0.9,1.9,1.7,1.9,2.5c0,0.3-0.1,0.6-0.3,0.8c-0.2,0.2-0.5,0.4-0.7,0.5c-0.2,0.1-0.4,0.1-0.4,0.1
			c-0.5-0.9-1.2-1.6-2.1-2.1c-0.9-0.6-2-0.9-3.2-1.1v8.5c1,0.2,1.9,0.5,2.7,0.8c0.7,0.3,1.5,0.7,2.2,1.2c0.8,0.5,1.3,1.1,1.7,1.9
			c0.4,0.8,0.6,1.7,0.6,2.7c0,1.7-0.7,3.2-2,4.4c-1.4,1.2-3.1,1.9-5.1,2.1v2.1c0,0.7-0.3,1.1-1,1.1h-0.2c-0.6,0-0.9-0.4-0.9-1.1
			v-2.2c-2-0.2-3.7-0.8-5.1-1.7C1817.5,32.6,1816.8,31.7,1816.8,30.8z M1819.8,17.8c0,1.1,0.4,1.9,1.1,2.5c0.7,0.6,1.8,1.1,3.3,1.5
			v-8c-1.3,0.2-2.3,0.6-3.1,1.4C1820.2,15.9,1819.8,16.8,1819.8,17.8z M1825.9,33.1c1.4-0.1,2.6-0.5,3.6-1.3
			c0.9-0.8,1.4-1.7,1.4-2.8c0-1.2-0.4-2.1-1.3-2.7s-2.1-1.2-3.7-1.6V33.1z"/>
	</g>
	<g>
		<path fill="#44B6FF" d="M1881.1,30.6c0-0.3,0.1-0.6,0.3-0.8c0.2-0.2,0.4-0.4,0.7-0.5c0.2-0.1,0.4-0.1,0.4-0.1c1.2,2,3,3.2,5.6,3.6
			v-8.5c-0.9-0.2-1.7-0.5-2.4-0.8c-0.7-0.3-1.3-0.7-2-1.1c-0.7-0.5-1.2-1.1-1.5-1.8c-0.3-0.7-0.5-1.6-0.5-2.5c0-1.6,0.6-2.9,1.8-4
			c1.2-1.1,2.7-1.8,4.5-2v-2c0-0.7,0.3-1,0.9-1.1h0.2c0.6,0,0.9,0.4,0.9,1.1V12c1.9,0.1,3.4,0.6,4.6,1.5c1.2,0.8,1.8,1.6,1.8,2.4
			c0,0.3-0.1,0.6-0.3,0.8c-0.2,0.2-0.4,0.4-0.7,0.5c-0.2,0.1-0.4,0.1-0.4,0.1c-0.5-0.8-1.2-1.5-2.1-2.1c-0.9-0.6-1.9-0.9-3.1-1.1
			v8.2c1,0.2,1.9,0.5,2.6,0.8c0.7,0.3,1.4,0.7,2.2,1.1c0.7,0.5,1.3,1.1,1.7,1.8c0.4,0.8,0.6,1.6,0.6,2.6c0,1.6-0.7,3-2,4.2
			c-1.3,1.2-3,1.8-5,2v2c0,0.7-0.3,1.1-0.9,1.1h-0.2c-0.6,0-0.9-0.4-0.9-1.1v-2.1c-1.9-0.2-3.6-0.7-4.9-1.7
			C1881.7,32.3,1881.1,31.4,1881.1,30.6z M1884,18c0,1.1,0.3,1.9,1,2.4c0.7,0.5,1.7,1,3.2,1.4v-7.7c-1.2,0.2-2.2,0.6-3,1.3
			C1884.4,16.2,1884,17,1884,18z M1889.9,32.8c1.4-0.1,2.5-0.5,3.4-1.3c0.9-0.7,1.3-1.7,1.3-2.7c0-1.1-0.4-2-1.2-2.6
			c-0.8-0.6-2-1.1-3.5-1.5V32.8z"/>
	</g>
	<g>
		<path fill="#44B6FF" d="M1945.5,30.2c0-0.3,0.1-0.5,0.3-0.8c0.2-0.2,0.4-0.4,0.6-0.5c0.2-0.1,0.3-0.1,0.4-0.1
			c1.1,1.9,2.9,3.1,5.3,3.4v-8.1c-0.9-0.2-1.6-0.5-2.3-0.7s-1.3-0.6-1.9-1.1c-0.6-0.4-1.1-1-1.4-1.7c-0.3-0.7-0.5-1.5-0.5-2.4
			c0-1.5,0.6-2.8,1.7-3.8c1.1-1.1,2.6-1.7,4.3-1.9v-1.9c0-0.7,0.3-1,0.9-1h0.2c0.6,0,0.8,0.3,0.8,1v1.8c1.8,0.1,3.2,0.6,4.4,1.4
			c1.2,0.8,1.7,1.6,1.7,2.3c0,0.3-0.1,0.5-0.3,0.8c-0.2,0.2-0.4,0.4-0.6,0.5c-0.2,0.1-0.3,0.1-0.4,0.1c-0.5-0.8-1.1-1.4-2-2
			c-0.9-0.5-1.8-0.9-2.9-1v7.8c1,0.2,1.8,0.5,2.4,0.7c0.7,0.3,1.4,0.6,2.1,1.1c0.7,0.4,1.2,1,1.6,1.8c0.4,0.7,0.5,1.6,0.5,2.5
			c0,1.6-0.6,2.9-1.9,4c-1.3,1.1-2.8,1.7-4.7,1.9v1.9c0,0.7-0.3,1-0.9,1h-0.2c-0.6,0-0.8-0.3-0.9-1v-2c-1.8-0.2-3.4-0.7-4.6-1.6
			C1946.1,31.8,1945.5,31,1945.5,30.2z M1948.2,18.3c0,1,0.3,1.8,1,2.3c0.7,0.5,1.7,1,3,1.3v-7.4c-1.2,0.1-2.1,0.6-2.9,1.3
			C1948.6,16.5,1948.2,17.3,1948.2,18.3z M1953.8,32.3c1.3-0.1,2.4-0.5,3.3-1.2c0.8-0.7,1.3-1.6,1.3-2.6c0-1.1-0.4-1.9-1.2-2.5
			c-0.8-0.6-1.9-1.1-3.4-1.5V32.3z"/>
	</g>
	<g>
		<path fill="#44B6FF" d="M2009.8,29.9c0-0.3,0.1-0.5,0.3-0.7c0.2-0.2,0.4-0.4,0.6-0.5c0.2-0.1,0.3-0.1,0.3-0.1
			c1.1,1.9,2.8,2.9,5.1,3.2v-7.7c-0.8-0.2-1.5-0.4-2.1-0.7c-0.6-0.3-1.2-0.6-1.8-1c-0.6-0.4-1.1-1-1.4-1.6c-0.3-0.6-0.5-1.4-0.5-2.3
			c0-1.4,0.5-2.6,1.6-3.6c1.1-1,2.5-1.6,4.1-1.8v-1.8c0-0.6,0.3-0.9,0.8-1h0.2c0.5,0,0.8,0.3,0.8,1v1.7c1.7,0.1,3.1,0.6,4.2,1.3
			s1.6,1.5,1.6,2.2c0,0.3-0.1,0.5-0.3,0.7c-0.2,0.2-0.4,0.4-0.6,0.5c-0.2,0.1-0.3,0.1-0.3,0.1c-0.4-0.7-1.1-1.4-1.9-1.9
			c-0.8-0.5-1.7-0.8-2.8-1v7.4c0.9,0.2,1.7,0.4,2.3,0.7c0.6,0.3,1.3,0.6,2,1c0.7,0.4,1.2,1,1.5,1.7c0.3,0.7,0.5,1.5,0.5,2.4
			c0,1.5-0.6,2.8-1.8,3.8c-1.2,1.1-2.7,1.7-4.5,1.8v1.8c0,0.6-0.3,1-0.8,1h-0.2c-0.5,0-0.8-0.3-0.8-1v-1.9c-1.8-0.2-3.2-0.7-4.4-1.5
			C2010.4,31.4,2009.8,30.6,2009.8,29.9z M2012.4,18.5c0,1,0.3,1.7,0.9,2.2c0.6,0.5,1.6,0.9,2.9,1.3v-7c-1.1,0.1-2,0.5-2.7,1.2
			C2012.8,16.9,2012.4,17.6,2012.4,18.5z M2017.8,31.9c1.3-0.1,2.3-0.5,3.1-1.1c0.8-0.7,1.2-1.5,1.2-2.5c0-1-0.4-1.8-1.1-2.4
			c-0.7-0.5-1.8-1-3.2-1.4V31.9z"/>
	</g>
	<g>
		<path fill="#44B6FF" d="M2074.2,29.6c0-0.3,0.1-0.5,0.3-0.7c0.2-0.2,0.4-0.3,0.6-0.4c0.2-0.1,0.3-0.1,0.3-0.1
			c1,1.8,2.6,2.8,4.8,3.1v-7.3c-0.8-0.2-1.5-0.4-2-0.6c-0.6-0.2-1.1-0.6-1.7-1c-0.6-0.4-1-0.9-1.3-1.5c-0.3-0.6-0.4-1.3-0.4-2.2
			c0-1.3,0.5-2.5,1.6-3.5c1-1,2.3-1.6,3.9-1.8v-1.7c0-0.6,0.3-0.9,0.8-0.9h0.2c0.5,0,0.8,0.3,0.8,0.9v1.7c1.6,0.1,2.9,0.5,4,1.3
			s1.6,1.4,1.6,2.1c0,0.3-0.1,0.5-0.3,0.7c-0.2,0.2-0.4,0.3-0.6,0.4c-0.2,0.1-0.3,0.1-0.3,0.1c-0.4-0.7-1-1.3-1.8-1.8
			c-0.8-0.5-1.7-0.8-2.6-0.9v7.1c0.9,0.2,1.6,0.4,2.2,0.7c0.6,0.3,1.2,0.6,1.9,1c0.6,0.4,1.1,0.9,1.4,1.6c0.3,0.7,0.5,1.4,0.5,2.3
			c0,1.4-0.6,2.6-1.7,3.6c-1.1,1-2.6,1.6-4.3,1.7v1.8c0,0.6-0.3,0.9-0.8,0.9h-0.2c-0.5,0-0.8-0.3-0.8-0.9v-1.8
			c-1.7-0.2-3.1-0.6-4.2-1.4C2074.7,31.1,2074.2,30.3,2074.2,29.6z M2076.7,18.8c0,0.9,0.3,1.6,0.9,2.1c0.6,0.5,1.5,0.9,2.7,1.2
			v-6.7c-1,0.1-1.9,0.5-2.6,1.1C2077,17.2,2076.7,17.9,2076.7,18.8z M2081.7,31.5c1.2-0.1,2.2-0.4,3-1.1c0.8-0.6,1.2-1.4,1.2-2.3
			c0-1-0.4-1.7-1.1-2.3c-0.7-0.5-1.7-1-3-1.3V31.5z"/>
	</g>
	<g>
		<path fill="#44B6FF" d="M2138.5,29.3c0-0.2,0.1-0.5,0.3-0.7c0.2-0.2,0.4-0.3,0.6-0.4c0.2-0.1,0.3-0.1,0.3-0.1
			c1,1.7,2.5,2.7,4.6,2.9v-7c-0.8-0.2-1.4-0.4-2-0.6c-0.5-0.2-1.1-0.5-1.6-0.9c-0.5-0.4-1-0.9-1.2-1.5c-0.3-0.6-0.4-1.3-0.4-2.1
			c0-1.3,0.5-2.4,1.5-3.3c1-0.9,2.2-1.5,3.7-1.7v-1.6c0-0.6,0.3-0.9,0.8-0.9h0.2c0.5,0,0.7,0.3,0.7,0.9V14c1.5,0.1,2.8,0.5,3.8,1.2
			c1,0.7,1.5,1.3,1.5,2c0,0.2-0.1,0.5-0.3,0.7c-0.2,0.2-0.4,0.3-0.6,0.4c-0.2,0.1-0.3,0.1-0.3,0.1c-0.4-0.7-1-1.2-1.7-1.7
			c-0.7-0.5-1.6-0.7-2.5-0.9v6.8c0.8,0.2,1.5,0.4,2.1,0.6c0.6,0.2,1.2,0.5,1.8,0.9c0.6,0.4,1.1,0.9,1.4,1.5c0.3,0.6,0.5,1.4,0.5,2.2
			c0,1.4-0.5,2.5-1.6,3.5c-1.1,1-2.4,1.5-4.1,1.6v1.7c0,0.6-0.3,0.9-0.8,0.9h-0.2c-0.5,0-0.7-0.3-0.7-0.9v-1.7
			c-1.6-0.1-2.9-0.6-4-1.4C2139,30.7,2138.5,30,2138.5,29.3z M2140.9,19c0,0.9,0.3,1.5,0.8,2c0.6,0.4,1.4,0.8,2.6,1.2v-6.4
			c-1,0.1-1.8,0.5-2.5,1.1C2141.2,17.5,2140.9,18.2,2140.9,19z M2145.7,31.1c1.1-0.1,2.1-0.4,2.8-1c0.7-0.6,1.1-1.4,1.1-2.2
			c0-0.9-0.3-1.7-1-2.2c-0.7-0.5-1.6-0.9-2.9-1.3V31.1z"/>
	</g>
	<g>
		<path fill="#44B6FF" d="M2202.7,29.2c0-0.2,0.1-0.5,0.3-0.6s0.4-0.3,0.5-0.4c0.2-0.1,0.3-0.1,0.3-0.1c0.9,1.6,2.4,2.6,4.5,2.9
			v-6.8c-0.7-0.2-1.4-0.4-1.9-0.6c-0.5-0.2-1.1-0.5-1.6-0.9c-0.5-0.4-0.9-0.9-1.2-1.4c-0.3-0.6-0.4-1.2-0.4-2c0-1.2,0.5-2.3,1.4-3.2
			c1-0.9,2.2-1.4,3.6-1.6v-1.6c0-0.6,0.3-0.8,0.8-0.9h0.2c0.5,0,0.7,0.3,0.7,0.9v1.5c1.5,0.1,2.7,0.5,3.7,1.2c1,0.7,1.5,1.3,1.5,1.9
			c0,0.2-0.1,0.5-0.3,0.6c-0.2,0.2-0.4,0.3-0.5,0.4c-0.2,0.1-0.3,0.1-0.3,0.1c-0.4-0.7-0.9-1.2-1.7-1.7c-0.7-0.4-1.5-0.7-2.5-0.8
			v6.6c0.8,0.2,1.5,0.4,2.1,0.6c0.6,0.2,1.1,0.5,1.7,0.9c0.6,0.4,1,0.9,1.3,1.5c0.3,0.6,0.5,1.3,0.5,2.1c0,1.3-0.5,2.4-1.6,3.4
			c-1.1,0.9-2.4,1.5-4,1.6v1.6c0,0.6-0.2,0.8-0.7,0.9h-0.2c-0.5,0-0.7-0.3-0.7-0.9v-1.7c-1.6-0.1-2.9-0.6-3.9-1.3
			C2203.2,30.5,2202.7,29.8,2202.7,29.2z M2205,19.1c0,0.9,0.3,1.5,0.8,1.9c0.5,0.4,1.4,0.8,2.5,1.1V16c-1,0.1-1.8,0.5-2.4,1.1
			C2205.3,17.6,2205,18.3,2205,19.1z M2209.7,30.9c1.1-0.1,2-0.4,2.8-1c0.7-0.6,1.1-1.3,1.1-2.2c0-0.9-0.3-1.6-1-2.1
			c-0.7-0.5-1.6-0.9-2.8-1.2V30.9z"/>
	</g>
	<g>
		<path fill="#44B6FF" d="M2266.7,29.2c0-0.2,0.1-0.5,0.3-0.6s0.4-0.3,0.5-0.4c0.2-0.1,0.3-0.1,0.3-0.1c0.9,1.6,2.4,2.6,4.5,2.9
			v-6.8c-0.7-0.2-1.4-0.4-1.9-0.6c-0.5-0.2-1.1-0.5-1.6-0.9c-0.5-0.4-0.9-0.9-1.2-1.4c-0.3-0.6-0.4-1.2-0.4-2c0-1.2,0.5-2.3,1.4-3.2
			c1-0.9,2.2-1.4,3.6-1.6v-1.6c0-0.6,0.3-0.8,0.8-0.9h0.2c0.5,0,0.7,0.3,0.7,0.9v1.5c1.5,0.1,2.7,0.5,3.7,1.2c1,0.7,1.5,1.3,1.5,1.9
			c0,0.2-0.1,0.5-0.3,0.6c-0.2,0.2-0.4,0.3-0.5,0.4c-0.2,0.1-0.3,0.1-0.3,0.1c-0.4-0.7-0.9-1.2-1.7-1.7c-0.7-0.4-1.5-0.7-2.5-0.8
			v6.6c0.8,0.2,1.5,0.4,2.1,0.6c0.6,0.2,1.1,0.5,1.7,0.9c0.6,0.4,1,0.9,1.3,1.5c0.3,0.6,0.5,1.3,0.5,2.1c0,1.3-0.5,2.4-1.6,3.4
			c-1.1,0.9-2.4,1.5-4,1.6v1.6c0,0.6-0.2,0.8-0.7,0.9h-0.2c-0.5,0-0.7-0.3-0.7-0.9v-1.7c-1.6-0.1-2.9-0.6-3.9-1.3
			C2267.2,30.5,2266.7,29.8,2266.7,29.2z M2269,19.1c0,0.9,0.3,1.5,0.8,1.9c0.5,0.4,1.4,0.8,2.5,1.1V16c-1,0.1-1.8,0.5-2.4,1.1
			C2269.3,17.6,2269,18.3,2269,19.1z M2273.7,30.9c1.1-0.1,2-0.4,2.8-1c0.7-0.6,1.1-1.3,1.1-2.2c0-0.9-0.3-1.6-1-2.1
			c-0.7-0.5-1.6-0.9-2.8-1.2V30.9z"/>
	</g>
	<g>
		<path fill="#44B6FF" d="M2330.7,29.2c0-0.2,0.1-0.5,0.3-0.6s0.4-0.3,0.5-0.4c0.2-0.1,0.3-0.1,0.3-0.1c0.9,1.6,2.4,2.6,4.5,2.9
			v-6.8c-0.7-0.2-1.4-0.4-1.9-0.6c-0.5-0.2-1.1-0.5-1.6-0.9c-0.5-0.4-0.9-0.9-1.2-1.4c-0.3-0.6-0.4-1.2-0.4-2c0-1.2,0.5-2.3,1.4-3.2
			c1-0.9,2.2-1.4,3.6-1.6v-1.6c0-0.6,0.3-0.8,0.8-0.9h0.2c0.5,0,0.7,0.3,0.7,0.9v1.5c1.5,0.1,2.7,0.5,3.7,1.2c1,0.7,1.5,1.3,1.5,1.9
			c0,0.2-0.1,0.5-0.3,0.6c-0.2,0.2-0.4,0.3-0.5,0.4c-0.2,0.1-0.3,0.1-0.3,0.1c-0.4-0.7-0.9-1.2-1.7-1.7c-0.7-0.4-1.5-0.7-2.5-0.8
			v6.6c0.8,0.2,1.5,0.4,2.1,0.6c0.6,0.2,1.1,0.5,1.7,0.9c0.6,0.4,1,0.9,1.3,1.5c0.3,0.6,0.5,1.3,0.5,2.1c0,1.3-0.5,2.4-1.6,3.4
			c-1.1,0.9-2.4,1.5-4,1.6v1.6c0,0.6-0.2,0.8-0.7,0.9h-0.2c-0.5,0-0.7-0.3-0.7-0.9v-1.7c-1.6-0.1-2.9-0.6-3.9-1.3
			C2331.2,30.5,2330.7,29.8,2330.7,29.2z M2333,19.1c0,0.9,0.3,1.5,0.8,1.9c0.5,0.4,1.4,0.8,2.5,1.1V16c-1,0.1-1.8,0.5-2.4,1.1
			C2333.3,17.6,2333,18.3,2333,19.1z M2337.7,30.9c1.1-0.1,2-0.4,2.8-1c0.7-0.6,1.1-1.3,1.1-2.2c0-0.9-0.3-1.6-1-2.1
			c-0.7-0.5-1.6-0.9-2.8-1.2V30.9z"/>
	</g>
	<g>
		<path fill="#44B6FF" d="M2394.4,29.4c0-0.2,0.1-0.5,0.3-0.7c0.2-0.2,0.4-0.3,0.6-0.4c0.2-0.1,0.3-0.1,0.3-0.1
			c1,1.7,2.5,2.7,4.6,2.9v-7c-0.8-0.2-1.4-0.4-2-0.6s-1.1-0.5-1.6-0.9c-0.6-0.4-1-0.9-1.2-1.5c-0.3-0.6-0.4-1.3-0.4-2.1
			c0-1.3,0.5-2.4,1.5-3.3c1-0.9,2.2-1.5,3.7-1.7v-1.6c0-0.6,0.3-0.9,0.8-0.9h0.2c0.5,0,0.7,0.3,0.7,0.9V14c1.5,0.1,2.8,0.5,3.8,1.2
			c1,0.7,1.5,1.4,1.5,2c0,0.2-0.1,0.5-0.3,0.7c-0.2,0.2-0.4,0.3-0.6,0.4c-0.2,0.1-0.3,0.1-0.3,0.1c-0.4-0.7-1-1.3-1.7-1.7
			c-0.7-0.5-1.6-0.8-2.5-0.9v6.8c0.8,0.2,1.5,0.4,2.1,0.6c0.6,0.2,1.2,0.6,1.8,0.9c0.6,0.4,1.1,0.9,1.4,1.5c0.3,0.6,0.5,1.4,0.5,2.2
			c0,1.4-0.5,2.5-1.6,3.5c-1.1,1-2.5,1.5-4.1,1.7v1.7c0,0.6-0.3,0.9-0.8,0.9h-0.2c-0.5,0-0.7-0.3-0.7-0.9v-1.7c-1.6-0.1-3-0.6-4-1.4
			C2395,30.8,2394.4,30,2394.4,29.4z M2396.8,19c0,0.9,0.3,1.6,0.9,2c0.6,0.5,1.4,0.8,2.6,1.2v-6.4c-1,0.1-1.8,0.5-2.5,1.1
			C2397.2,17.4,2396.8,18.1,2396.8,19z M2401.7,31.2c1.2-0.1,2.1-0.4,2.8-1c0.7-0.6,1.1-1.4,1.1-2.3c0-0.9-0.3-1.7-1-2.2
			c-0.7-0.5-1.7-0.9-2.9-1.3V31.2z"/>
	</g>
	<g>
		<path fill="#44B6FF" d="M2458.4,29.4c0-0.2,0.1-0.5,0.3-0.7c0.2-0.2,0.4-0.3,0.6-0.4c0.2-0.1,0.3-0.1,0.3-0.1
			c1,1.7,2.5,2.7,4.6,2.9v-7c-0.8-0.2-1.4-0.4-2-0.6s-1.1-0.5-1.6-0.9c-0.6-0.4-1-0.9-1.2-1.5c-0.3-0.6-0.4-1.3-0.4-2.1
			c0-1.3,0.5-2.4,1.5-3.3c1-0.9,2.2-1.5,3.7-1.7v-1.6c0-0.6,0.3-0.9,0.8-0.9h0.2c0.5,0,0.7,0.3,0.7,0.9V14c1.5,0.1,2.8,0.5,3.8,1.2
			c1,0.7,1.5,1.4,1.5,2c0,0.2-0.1,0.5-0.3,0.7c-0.2,0.2-0.4,0.3-0.6,0.4c-0.2,0.1-0.3,0.1-0.3,0.1c-0.4-0.7-1-1.3-1.7-1.7
			c-0.7-0.5-1.6-0.8-2.5-0.9v6.8c0.8,0.2,1.5,0.4,2.1,0.6c0.6,0.2,1.2,0.6,1.8,0.9c0.6,0.4,1.1,0.9,1.4,1.5c0.3,0.6,0.5,1.4,0.5,2.2
			c0,1.4-0.5,2.5-1.6,3.5c-1.1,1-2.5,1.5-4.1,1.7v1.7c0,0.6-0.3,0.9-0.8,0.9h-0.2c-0.5,0-0.7-0.3-0.7-0.9v-1.7c-1.6-0.1-3-0.6-4-1.4
			C2459,30.8,2458.4,30,2458.4,29.4z M2460.8,19c0,0.9,0.3,1.6,0.9,2c0.6,0.5,1.4,0.8,2.6,1.2v-6.4c-1,0.1-1.8,0.5-2.5,1.1
			C2461.2,17.4,2460.8,18.1,2460.8,19z M2465.7,31.2c1.2-0.1,2.1-0.4,2.8-1c0.7-0.6,1.1-1.4,1.1-2.3c0-0.9-0.3-1.7-1-2.2
			c-0.7-0.5-1.7-0.9-2.9-1.3V31.2z"/>
	</g>
	<g>
		<path fill="#44B6FF" d="M2522.2,29.5c0-0.3,0.1-0.5,0.3-0.7c0.2-0.2,0.4-0.3,0.6-0.4c0.2-0.1,0.3-0.1,0.3-0.1c1,1.7,2.6,2.8,4.8,3
			v-7.3c-0.8-0.2-1.5-0.4-2-0.6c-0.6-0.2-1.1-0.6-1.7-1c-0.6-0.4-1-0.9-1.3-1.5c-0.3-0.6-0.4-1.3-0.4-2.1c0-1.3,0.5-2.5,1.5-3.4
			c1-1,2.3-1.5,3.9-1.7V12c0-0.6,0.3-0.9,0.8-0.9h0.2c0.5,0,0.8,0.3,0.8,0.9v1.6c1.6,0.1,2.9,0.5,3.9,1.2c1,0.7,1.6,1.4,1.6,2
			c0,0.3-0.1,0.5-0.3,0.7c-0.2,0.2-0.4,0.3-0.6,0.4c-0.2,0.1-0.3,0.1-0.3,0.1c-0.4-0.7-1-1.3-1.8-1.8c-0.8-0.5-1.6-0.8-2.6-0.9v7
			c0.9,0.2,1.6,0.4,2.2,0.7c0.6,0.2,1.2,0.6,1.8,1c0.6,0.4,1.1,0.9,1.4,1.6c0.3,0.7,0.5,1.4,0.5,2.3c0,1.4-0.6,2.6-1.7,3.6
			c-1.1,1-2.5,1.6-4.2,1.7V35c0,0.6-0.3,0.9-0.8,0.9h-0.2c-0.5,0-0.8-0.3-0.8-0.9v-1.8c-1.7-0.2-3-0.6-4.2-1.4
			C2522.8,31,2522.2,30.2,2522.2,29.5z M2524.7,18.8c0,0.9,0.3,1.6,0.9,2.1c0.6,0.5,1.5,0.9,2.7,1.2v-6.6c-1,0.1-1.9,0.5-2.6,1.1
			C2525,17.2,2524.7,18,2524.7,18.8z M2529.7,31.4c1.2-0.1,2.2-0.4,2.9-1.1c0.8-0.6,1.1-1.4,1.1-2.3c0-1-0.4-1.7-1.1-2.2
			c-0.7-0.5-1.7-1-3-1.3V31.4z"/>
	</g>
	<g>
		<path fill="#44B6FF" d="M2586.2,29.5c0-0.3,0.1-0.5,0.3-0.7c0.2-0.2,0.4-0.3,0.6-0.4c0.2-0.1,0.3-0.1,0.3-0.1c1,1.7,2.6,2.8,4.8,3
			v-7.3c-0.8-0.2-1.5-0.4-2-0.6c-0.6-0.2-1.1-0.6-1.7-1c-0.6-0.4-1-0.9-1.3-1.5c-0.3-0.6-0.4-1.3-0.4-2.1c0-1.3,0.5-2.5,1.5-3.4
			c1-1,2.3-1.5,3.9-1.7V12c0-0.6,0.3-0.9,0.8-0.9h0.2c0.5,0,0.8,0.3,0.8,0.9v1.6c1.6,0.1,2.9,0.5,3.9,1.2c1,0.7,1.6,1.4,1.6,2
			c0,0.3-0.1,0.5-0.3,0.7c-0.2,0.2-0.4,0.3-0.6,0.4c-0.2,0.1-0.3,0.1-0.3,0.1c-0.4-0.7-1-1.3-1.8-1.8c-0.8-0.5-1.6-0.8-2.6-0.9v7
			c0.9,0.2,1.6,0.4,2.2,0.7c0.6,0.2,1.2,0.6,1.8,1c0.6,0.4,1.1,0.9,1.4,1.6c0.3,0.7,0.5,1.4,0.5,2.3c0,1.4-0.6,2.6-1.7,3.6
			c-1.1,1-2.5,1.6-4.2,1.7V35c0,0.6-0.3,0.9-0.8,0.9h-0.2c-0.5,0-0.8-0.3-0.8-0.9v-1.8c-1.7-0.2-3-0.6-4.2-1.4
			C2586.8,31,2586.2,30.2,2586.2,29.5z M2588.7,18.8c0,0.9,0.3,1.6,0.9,2.1c0.6,0.5,1.5,0.9,2.7,1.2v-6.6c-1,0.1-1.9,0.5-2.6,1.1
			C2589,17.2,2588.7,18,2588.7,18.8z M2593.7,31.4c1.2-0.1,2.2-0.4,2.9-1.1c0.8-0.6,1.1-1.4,1.1-2.3c0-1-0.4-1.7-1.1-2.2
			c-0.7-0.5-1.7-1-3-1.3V31.4z"/>
	</g>
	<g>
		<path fill="#44B6FF" d="M2649.9,29.8c0-0.3,0.1-0.5,0.3-0.7c0.2-0.2,0.4-0.4,0.6-0.5c0.2-0.1,0.3-0.1,0.3-0.1
			c1.1,1.8,2.7,2.9,5,3.2v-7.6c-0.8-0.2-1.5-0.4-2.1-0.7c-0.6-0.2-1.2-0.6-1.8-1c-0.6-0.4-1-1-1.4-1.6c-0.3-0.6-0.5-1.4-0.5-2.3
			c0-1.4,0.5-2.6,1.6-3.6c1.1-1,2.4-1.6,4.1-1.8v-1.8c0-0.6,0.3-0.9,0.8-1h0.2c0.5,0,0.8,0.3,0.8,1v1.7c1.7,0.1,3,0.6,4.1,1.3
			s1.6,1.5,1.6,2.1c0,0.3-0.1,0.5-0.3,0.7c-0.2,0.2-0.4,0.4-0.6,0.5c-0.2,0.1-0.3,0.1-0.3,0.1c-0.4-0.7-1-1.4-1.9-1.9
			c-0.8-0.5-1.7-0.8-2.8-0.9v7.4c0.9,0.2,1.7,0.4,2.3,0.7c0.6,0.3,1.3,0.6,1.9,1c0.7,0.4,1.2,1,1.5,1.7c0.3,0.7,0.5,1.5,0.5,2.4
			c0,1.5-0.6,2.7-1.8,3.8c-1.2,1-2.7,1.6-4.4,1.8v1.8c0,0.6-0.3,0.9-0.8,1h-0.2c-0.5,0-0.8-0.3-0.8-1v-1.9c-1.7-0.2-3.2-0.7-4.4-1.5
			C2650.5,31.4,2649.9,30.6,2649.9,29.8z M2652.5,18.6c0,1,0.3,1.7,0.9,2.2c0.6,0.5,1.6,0.9,2.8,1.3v-6.9c-1.1,0.1-2,0.5-2.7,1.2
			C2652.8,16.9,2652.5,17.7,2652.5,18.6z M2657.8,31.8c1.3-0.1,2.3-0.5,3.1-1.1c0.8-0.7,1.2-1.5,1.2-2.4c0-1-0.4-1.8-1.1-2.3
			c-0.7-0.5-1.8-1-3.2-1.4V31.8z"/>
	</g>
	<g>
		<path fill="#44B6FF" d="M2713.9,29.8c0-0.3,0.1-0.5,0.3-0.7c0.2-0.2,0.4-0.4,0.6-0.5c0.2-0.1,0.3-0.1,0.3-0.1
			c1.1,1.8,2.7,2.9,5,3.2v-7.6c-0.8-0.2-1.5-0.4-2.1-0.7c-0.6-0.2-1.2-0.6-1.8-1c-0.6-0.4-1-1-1.4-1.6c-0.3-0.6-0.5-1.4-0.5-2.3
			c0-1.4,0.5-2.6,1.6-3.6c1.1-1,2.4-1.6,4.1-1.8v-1.8c0-0.6,0.3-0.9,0.8-1h0.2c0.5,0,0.8,0.3,0.8,1v1.7c1.7,0.1,3,0.6,4.1,1.3
			s1.6,1.5,1.6,2.1c0,0.3-0.1,0.5-0.3,0.7c-0.2,0.2-0.4,0.4-0.6,0.5c-0.2,0.1-0.3,0.1-0.3,0.1c-0.4-0.7-1-1.4-1.9-1.9
			c-0.8-0.5-1.7-0.8-2.8-0.9v7.4c0.9,0.2,1.7,0.4,2.3,0.7c0.6,0.3,1.3,0.6,1.9,1c0.7,0.4,1.2,1,1.5,1.7c0.3,0.7,0.5,1.5,0.5,2.4
			c0,1.5-0.6,2.7-1.8,3.8c-1.2,1-2.7,1.6-4.4,1.8v1.8c0,0.6-0.3,0.9-0.8,1h-0.2c-0.5,0-0.8-0.3-0.8-1v-1.9c-1.7-0.2-3.2-0.7-4.4-1.5
			C2714.5,31.4,2713.9,30.6,2713.9,29.8z M2716.5,18.6c0,1,0.3,1.7,0.9,2.2c0.6,0.5,1.6,0.9,2.8,1.3v-6.9c-1.1,0.1-2,0.5-2.7,1.2
			C2716.8,16.9,2716.5,17.7,2716.5,18.6z M2721.8,31.8c1.3-0.1,2.3-0.5,3.1-1.1c0.8-0.7,1.2-1.5,1.2-2.4c0-1-0.4-1.8-1.1-2.3
			c-0.7-0.5-1.8-1-3.2-1.4V31.8z"/>
	</g>
	<g>
		<path fill="#44B6FF" d="M2777.9,29.8c0-0.3,0.1-0.5,0.3-0.7c0.2-0.2,0.4-0.4,0.6-0.5c0.2-0.1,0.3-0.1,0.3-0.1
			c1.1,1.8,2.7,2.9,5,3.2v-7.6c-0.8-0.2-1.5-0.4-2.1-0.7c-0.6-0.2-1.2-0.6-1.8-1c-0.6-0.4-1-1-1.4-1.6c-0.3-0.6-0.5-1.4-0.5-2.3
			c0-1.4,0.5-2.6,1.6-3.6c1.1-1,2.4-1.6,4.1-1.8v-1.8c0-0.6,0.3-0.9,0.8-1h0.2c0.5,0,0.8,0.3,0.8,1v1.7c1.7,0.1,3,0.6,4.1,1.3
			s1.6,1.5,1.6,2.1c0,0.3-0.1,0.5-0.3,0.7c-0.2,0.2-0.4,0.4-0.6,0.5c-0.2,0.1-0.3,0.1-0.3,0.1c-0.4-0.7-1-1.4-1.9-1.9
			c-0.8-0.5-1.7-0.8-2.8-0.9v7.4c0.9,0.2,1.7,0.4,2.3,0.7c0.6,0.3,1.3,0.6,1.9,1c0.7,0.4,1.2,1,1.5,1.7c0.3,0.7,0.5,1.5,0.5,2.4
			c0,1.5-0.6,2.7-1.8,3.8c-1.2,1-2.7,1.6-4.4,1.8v1.8c0,0.6-0.3,0.9-0.8,1h-0.2c-0.5,0-0.8-0.3-0.8-1v-1.9c-1.7-0.2-3.2-0.7-4.4-1.5
			C2778.5,31.4,2777.9,30.6,2777.9,29.8z M2780.5,18.6c0,1,0.3,1.7,0.9,2.2c0.6,0.5,1.6,0.9,2.8,1.3v-6.9c-1.1,0.1-2,0.5-2.7,1.2
			C2780.8,16.9,2780.5,17.7,2780.5,18.6z M2785.8,31.8c1.3-0.1,2.3-0.5,3.1-1.1c0.8-0.7,1.2-1.5,1.2-2.4c0-1-0.4-1.8-1.1-2.3
			c-0.7-0.5-1.8-1-3.2-1.4V31.8z"/>
	</g>
	<g>
		<path fill="#44B6FF" d="M2841.6,30.1c0-0.3,0.1-0.5,0.3-0.7c0.2-0.2,0.4-0.4,0.6-0.5c0.2-0.1,0.3-0.1,0.4-0.1
			c1.1,1.9,2.8,3,5.2,3.3v-8c-0.9-0.2-1.6-0.4-2.2-0.7c-0.6-0.3-1.2-0.6-1.9-1c-0.6-0.4-1.1-1-1.4-1.7c-0.3-0.7-0.5-1.5-0.5-2.4
			c0-1.5,0.6-2.7,1.7-3.8c1.1-1.1,2.5-1.7,4.2-1.9v-1.8c0-0.7,0.3-1,0.9-1h0.2c0.6,0,0.8,0.3,0.8,1v1.8c1.7,0.1,3.2,0.6,4.3,1.4
			c1.1,0.8,1.7,1.5,1.7,2.2c0,0.3-0.1,0.5-0.3,0.7c-0.2,0.2-0.4,0.4-0.6,0.5c-0.2,0.1-0.3,0.1-0.4,0.1c-0.4-0.8-1.1-1.4-1.9-1.9
			c-0.8-0.5-1.8-0.8-2.9-1v7.7c0.9,0.2,1.7,0.4,2.4,0.7c0.7,0.3,1.3,0.6,2,1.1c0.7,0.4,1.2,1,1.6,1.7c0.4,0.7,0.5,1.5,0.5,2.5
			c0,1.5-0.6,2.9-1.8,3.9c-1.2,1.1-2.8,1.7-4.6,1.9v1.9c0,0.7-0.3,1-0.9,1h-0.2c-0.6,0-0.8-0.3-0.8-1v-1.9c-1.8-0.2-3.3-0.7-4.6-1.6
			C2842.2,31.7,2841.6,30.9,2841.6,30.1z M2844.3,18.4c0,1,0.3,1.8,1,2.3c0.6,0.5,1.6,0.9,3,1.3v-7.2c-1.1,0.1-2.1,0.6-2.8,1.2
			C2844.7,16.6,2844.3,17.4,2844.3,18.4z M2849.8,32.2c1.3-0.1,2.4-0.5,3.2-1.2c0.8-0.7,1.3-1.5,1.3-2.5c0-1.1-0.4-1.9-1.2-2.4
			c-0.8-0.6-1.9-1-3.3-1.4V32.2z"/>
	</g>
	<g>
		<path fill="#44B6FF" d="M2905.6,30.1c0-0.3,0.1-0.5,0.3-0.7c0.2-0.2,0.4-0.4,0.6-0.5c0.2-0.1,0.3-0.1,0.4-0.1
			c1.1,1.9,2.8,3,5.2,3.3v-8c-0.9-0.2-1.6-0.4-2.2-0.7c-0.6-0.3-1.2-0.6-1.9-1c-0.6-0.4-1.1-1-1.4-1.7c-0.3-0.7-0.5-1.5-0.5-2.4
			c0-1.5,0.6-2.7,1.7-3.8c1.1-1.1,2.5-1.7,4.2-1.9v-1.8c0-0.7,0.3-1,0.9-1h0.2c0.6,0,0.8,0.3,0.8,1v1.8c1.7,0.1,3.2,0.6,4.3,1.4
			c1.1,0.8,1.7,1.5,1.7,2.2c0,0.3-0.1,0.5-0.3,0.7c-0.2,0.2-0.4,0.4-0.6,0.5c-0.2,0.1-0.3,0.1-0.4,0.1c-0.4-0.8-1.1-1.4-1.9-1.9
			c-0.8-0.5-1.8-0.8-2.9-1v7.7c0.9,0.2,1.7,0.4,2.4,0.7c0.7,0.3,1.3,0.6,2,1.1c0.7,0.4,1.2,1,1.6,1.7c0.4,0.7,0.5,1.5,0.5,2.5
			c0,1.5-0.6,2.9-1.8,3.9c-1.2,1.1-2.8,1.7-4.6,1.9v1.9c0,0.7-0.3,1-0.9,1h-0.2c-0.6,0-0.8-0.3-0.8-1v-1.9c-1.8-0.2-3.3-0.7-4.6-1.6
			C2906.2,31.7,2905.6,30.9,2905.6,30.1z M2908.3,18.4c0,1,0.3,1.8,1,2.3c0.6,0.5,1.6,0.9,3,1.3v-7.2c-1.1,0.1-2.1,0.6-2.8,1.2
			C2908.7,16.6,2908.3,17.4,2908.3,18.4z M2913.8,32.2c1.3-0.1,2.4-0.5,3.2-1.2c0.8-0.7,1.3-1.5,1.3-2.5c0-1.1-0.4-1.9-1.2-2.4
			c-0.8-0.6-1.9-1-3.3-1.4V32.2z"/>
	</g>
	<g>
		<path fill="#44B6FF" d="M2969.4,30.3c0-0.3,0.1-0.5,0.3-0.8c0.2-0.2,0.4-0.4,0.6-0.5c0.2-0.1,0.3-0.1,0.4-0.1
			c1.1,2,2.9,3.1,5.4,3.4v-8.1c-0.9-0.2-1.6-0.5-2.3-0.7c-0.6-0.3-1.3-0.6-1.9-1.1c-0.6-0.4-1.1-1-1.4-1.7c-0.3-0.7-0.5-1.5-0.5-2.4
			c0-1.5,0.6-2.8,1.7-3.9c1.1-1.1,2.6-1.7,4.3-2v-1.9c0-0.7,0.3-1,0.9-1h0.2c0.6,0,0.8,0.3,0.8,1v1.8c1.8,0.1,3.2,0.6,4.4,1.4
			s1.7,1.6,1.7,2.3c0,0.3-0.1,0.5-0.3,0.8c-0.2,0.2-0.4,0.4-0.6,0.5c-0.2,0.1-0.3,0.1-0.4,0.1c-0.5-0.8-1.1-1.4-2-2
			c-0.9-0.5-1.8-0.9-2.9-1v7.9c1,0.2,1.8,0.5,2.5,0.7c0.7,0.3,1.4,0.6,2.1,1.1c0.7,0.4,1.2,1,1.6,1.8c0.4,0.7,0.5,1.6,0.5,2.5
			c0,1.6-0.6,2.9-1.9,4c-1.3,1.1-2.8,1.8-4.7,1.9v1.9c0,0.7-0.3,1-0.9,1h-0.2c-0.6,0-0.9-0.3-0.9-1v-2c-1.9-0.2-3.4-0.7-4.7-1.6
			C2970,31.9,2969.4,31.1,2969.4,30.3z M2972.2,18.3c0,1,0.3,1.8,1,2.3c0.7,0.5,1.7,1,3,1.3v-7.4c-1.2,0.1-2.1,0.6-2.9,1.3
			C2972.6,16.5,2972.2,17.3,2972.2,18.3z M2977.8,32.4c1.3-0.1,2.4-0.5,3.3-1.2c0.9-0.7,1.3-1.6,1.3-2.6c0-1.1-0.4-1.9-1.2-2.5
			s-1.9-1.1-3.4-1.5V32.4z"/>
	</g>
	<g>
		<path fill="#44B6FF" d="M3033.4,30.3c0-0.3,0.1-0.5,0.3-0.8c0.2-0.2,0.4-0.4,0.6-0.5c0.2-0.1,0.3-0.1,0.4-0.1
			c1.1,2,2.9,3.1,5.4,3.4v-8.1c-0.9-0.2-1.6-0.5-2.3-0.7c-0.6-0.3-1.3-0.6-1.9-1.1c-0.6-0.4-1.1-1-1.4-1.7c-0.3-0.7-0.5-1.5-0.5-2.4
			c0-1.5,0.6-2.8,1.7-3.9c1.1-1.1,2.6-1.7,4.3-2v-1.9c0-0.7,0.3-1,0.9-1h0.2c0.6,0,0.8,0.3,0.8,1v1.8c1.8,0.1,3.2,0.6,4.4,1.4
			s1.7,1.6,1.7,2.3c0,0.3-0.1,0.5-0.3,0.8c-0.2,0.2-0.4,0.4-0.6,0.5c-0.2,0.1-0.3,0.1-0.4,0.1c-0.5-0.8-1.1-1.4-2-2
			c-0.9-0.5-1.8-0.9-2.9-1v7.9c1,0.2,1.8,0.5,2.5,0.7c0.7,0.3,1.4,0.6,2.1,1.1c0.7,0.4,1.2,1,1.6,1.8c0.4,0.7,0.5,1.6,0.5,2.5
			c0,1.6-0.6,2.9-1.9,4c-1.3,1.1-2.8,1.8-4.7,1.9v1.9c0,0.7-0.3,1-0.9,1h-0.2c-0.6,0-0.9-0.3-0.9-1v-2c-1.9-0.2-3.4-0.7-4.7-1.6
			C3034,31.9,3033.4,31.1,3033.4,30.3z M3036.2,18.3c0,1,0.3,1.8,1,2.3c0.7,0.5,1.7,1,3,1.3v-7.4c-1.2,0.1-2.1,0.6-2.9,1.3
			C3036.6,16.5,3036.2,17.3,3036.2,18.3z M3041.8,32.4c1.3-0.1,2.4-0.5,3.3-1.2c0.9-0.7,1.3-1.6,1.3-2.6c0-1.1-0.4-1.9-1.2-2.5
			s-1.9-1.1-3.4-1.5V32.4z"/>
	</g>
	<g>
		<path fill="#44B6FF" d="M3097.4,30.3c0-0.3,0.1-0.5,0.3-0.8c0.2-0.2,0.4-0.4,0.6-0.5c0.2-0.1,0.3-0.1,0.4-0.1
			c1.1,2,2.9,3.1,5.4,3.4v-8.1c-0.9-0.2-1.6-0.5-2.3-0.7c-0.6-0.3-1.3-0.6-1.9-1.1c-0.6-0.4-1.1-1-1.4-1.7c-0.3-0.7-0.5-1.5-0.5-2.4
			c0-1.5,0.6-2.8,1.7-3.9c1.1-1.1,2.6-1.7,4.3-2v-1.9c0-0.7,0.3-1,0.9-1h0.2c0.6,0,0.8,0.3,0.8,1v1.8c1.8,0.1,3.2,0.6,4.4,1.4
			s1.7,1.6,1.7,2.3c0,0.3-0.1,0.5-0.3,0.8c-0.2,0.2-0.4,0.4-0.6,0.5c-0.2,0.1-0.3,0.1-0.4,0.1c-0.5-0.8-1.1-1.4-2-2
			c-0.9-0.5-1.8-0.9-2.9-1v7.9c1,0.2,1.8,0.5,2.5,0.7c0.7,0.3,1.4,0.6,2.1,1.1c0.7,0.4,1.2,1,1.6,1.8c0.4,0.7,0.5,1.6,0.5,2.5
			c0,1.6-0.6,2.9-1.9,4c-1.3,1.1-2.8,1.8-4.7,1.9v1.9c0,0.7-0.3,1-0.9,1h-0.2c-0.6,0-0.9-0.3-0.9-1v-2c-1.9-0.2-3.4-0.7-4.7-1.6
			C3098,31.9,3097.4,31.1,3097.4,30.3z M3100.2,18.3c0,1,0.3,1.8,1,2.3c0.7,0.5,1.7,1,3,1.3v-7.4c-1.2,0.1-2.1,0.6-2.9,1.3
			C3100.6,16.5,3100.2,17.3,3100.2,18.3z M3105.8,32.4c1.3-0.1,2.4-0.5,3.3-1.2c0.9-0.7,1.3-1.6,1.3-2.6c0-1.1-0.4-1.9-1.2-2.5
			s-1.9-1.1-3.4-1.5V32.4z"/>
	</g>
	<g>
		<path fill="#44B6FF" d="M3161.4,30.3c0-0.3,0.1-0.5,0.3-0.8c0.2-0.2,0.4-0.4,0.6-0.5c0.2-0.1,0.3-0.1,0.4-0.1
			c1.1,2,2.9,3.1,5.4,3.4v-8.1c-0.9-0.2-1.6-0.5-2.3-0.7c-0.6-0.3-1.3-0.6-1.9-1.1c-0.6-0.4-1.1-1-1.4-1.7c-0.3-0.7-0.5-1.5-0.5-2.4
			c0-1.5,0.6-2.8,1.7-3.9c1.1-1.1,2.6-1.7,4.3-2v-1.9c0-0.7,0.3-1,0.9-1h0.2c0.6,0,0.8,0.3,0.8,1v1.8c1.8,0.1,3.2,0.6,4.4,1.4
			s1.7,1.6,1.7,2.3c0,0.3-0.1,0.5-0.3,0.8c-0.2,0.2-0.4,0.4-0.6,0.5c-0.2,0.1-0.3,0.1-0.4,0.1c-0.5-0.8-1.1-1.4-2-2
			c-0.9-0.5-1.8-0.9-2.9-1v7.9c1,0.2,1.8,0.5,2.5,0.7c0.7,0.3,1.4,0.6,2.1,1.1c0.7,0.4,1.2,1,1.6,1.8c0.4,0.7,0.5,1.6,0.5,2.5
			c0,1.6-0.6,2.9-1.9,4c-1.3,1.1-2.8,1.8-4.7,1.9v1.9c0,0.7-0.3,1-0.9,1h-0.2c-0.6,0-0.9-0.3-0.9-1v-2c-1.9-0.2-3.4-0.7-4.7-1.6
			C3162,31.9,3161.4,31.1,3161.4,30.3z M3164.2,18.3c0,1,0.3,1.8,1,2.3c0.7,0.5,1.7,1,3,1.3v-7.4c-1.2,0.1-2.1,0.6-2.9,1.3
			C3164.6,16.5,3164.2,17.3,3164.2,18.3z M3169.8,32.4c1.3-0.1,2.4-0.5,3.3-1.2c0.9-0.7,1.3-1.6,1.3-2.6c0-1.1-0.4-1.9-1.2-2.5
			s-1.9-1.1-3.4-1.5V32.4z"/>
	</g>
	<g>
		<path fill="#44B6FF" d="M3225.4,30.3c0-0.3,0.1-0.5,0.3-0.8c0.2-0.2,0.4-0.4,0.6-0.5c0.2-0.1,0.3-0.1,0.4-0.1
			c1.1,2,2.9,3.1,5.4,3.4v-8.1c-0.9-0.2-1.6-0.5-2.3-0.7c-0.6-0.3-1.3-0.6-1.9-1.1c-0.6-0.4-1.1-1-1.4-1.7c-0.3-0.7-0.5-1.5-0.5-2.4
			c0-1.5,0.6-2.8,1.7-3.9c1.1-1.1,2.6-1.7,4.3-2v-1.9c0-0.7,0.3-1,0.9-1h0.2c0.6,0,0.8,0.3,0.8,1v1.8c1.8,0.1,3.2,0.6,4.4,1.4
			s1.7,1.6,1.7,2.3c0,0.3-0.1,0.5-0.3,0.8c-0.2,0.2-0.4,0.4-0.6,0.5c-0.2,0.1-0.3,0.1-0.4,0.1c-0.5-0.8-1.1-1.4-2-2
			c-0.9-0.5-1.8-0.9-2.9-1v7.9c1,0.2,1.8,0.5,2.5,0.7c0.7,0.3,1.4,0.6,2.1,1.1c0.7,0.4,1.2,1,1.6,1.8c0.4,0.7,0.5,1.6,0.5,2.5
			c0,1.6-0.6,2.9-1.9,4c-1.3,1.1-2.8,1.8-4.7,1.9v1.9c0,0.7-0.3,1-0.9,1h-0.2c-0.6,0-0.9-0.3-0.9-1v-2c-1.9-0.2-3.4-0.7-4.7-1.6
			C3226,31.9,3225.4,31.1,3225.4,30.3z M3228.2,18.3c0,1,0.3,1.8,1,2.3c0.7,0.5,1.7,1,3,1.3v-7.4c-1.2,0.1-2.1,0.6-2.9,1.3
			C3228.6,16.5,3228.2,17.3,3228.2,18.3z M3233.8,32.4c1.3-0.1,2.4-0.5,3.3-1.2c0.9-0.7,1.3-1.6,1.3-2.6c0-1.1-0.4-1.9-1.2-2.5
			s-1.9-1.1-3.4-1.5V32.4z"/>
	</g>
	<g>
		<path fill="#44B6FF" d="M3289.7,30c0-0.3,0.1-0.5,0.3-0.7c0.2-0.2,0.4-0.4,0.6-0.5c0.2-0.1,0.3-0.1,0.3-0.1c1.1,1.9,2.8,3,5.2,3.3
			v-7.9c-0.8-0.2-1.6-0.4-2.2-0.7c-0.6-0.3-1.2-0.6-1.8-1c-0.6-0.4-1.1-1-1.4-1.6c-0.3-0.7-0.5-1.4-0.5-2.3c0-1.4,0.6-2.7,1.7-3.7
			c1.1-1,2.5-1.7,4.2-1.9V11c0-0.6,0.3-1,0.9-1h0.2c0.5,0,0.8,0.3,0.8,1v1.8c1.7,0.1,3.1,0.6,4.3,1.3s1.7,1.5,1.7,2.2
			c0,0.3-0.1,0.5-0.3,0.7c-0.2,0.2-0.4,0.4-0.6,0.5c-0.2,0.1-0.3,0.1-0.3,0.1c-0.4-0.8-1.1-1.4-1.9-1.9c-0.8-0.5-1.8-0.8-2.8-1v7.6
			c0.9,0.2,1.7,0.4,2.4,0.7c0.7,0.3,1.3,0.6,2,1.1c0.7,0.4,1.2,1,1.5,1.7c0.4,0.7,0.5,1.5,0.5,2.4c0,1.5-0.6,2.8-1.8,3.9
			c-1.2,1.1-2.7,1.7-4.6,1.9v1.9c0,0.6-0.3,1-0.9,1h-0.2c-0.5,0-0.8-0.3-0.8-1V34c-1.8-0.2-3.3-0.7-4.5-1.5
			C3290.3,31.6,3289.7,30.8,3289.7,30z M3292.3,18.4c0,1,0.3,1.7,1,2.2c0.6,0.5,1.6,0.9,2.9,1.3v-7.2c-1.1,0.1-2.1,0.6-2.8,1.2
			C3292.7,16.7,3292.3,17.5,3292.3,18.4z M3297.8,32.1c1.3-0.1,2.3-0.5,3.2-1.2c0.8-0.7,1.2-1.5,1.2-2.5c0-1.1-0.4-1.9-1.1-2.4
			c-0.8-0.6-1.9-1-3.3-1.4V32.1z"/>
	</g>
	<g>
		<path fill="#44B6FF" d="M3353.7,30c0-0.3,0.1-0.5,0.3-0.7c0.2-0.2,0.4-0.4,0.6-0.5c0.2-0.1,0.3-0.1,0.3-0.1c1.1,1.9,2.8,3,5.2,3.3
			v-7.9c-0.8-0.2-1.6-0.4-2.2-0.7c-0.6-0.3-1.2-0.6-1.8-1c-0.6-0.4-1.1-1-1.4-1.6c-0.3-0.7-0.5-1.4-0.5-2.3c0-1.4,0.6-2.7,1.7-3.7
			c1.1-1,2.5-1.7,4.2-1.9V11c0-0.6,0.3-1,0.9-1h0.2c0.5,0,0.8,0.3,0.8,1v1.8c1.7,0.1,3.1,0.6,4.3,1.3s1.7,1.5,1.7,2.2
			c0,0.3-0.1,0.5-0.3,0.7c-0.2,0.2-0.4,0.4-0.6,0.5c-0.2,0.1-0.3,0.1-0.3,0.1c-0.4-0.8-1.1-1.4-1.9-1.9c-0.8-0.5-1.8-0.8-2.8-1v7.6
			c0.9,0.2,1.7,0.4,2.4,0.7c0.7,0.3,1.3,0.6,2,1.1c0.7,0.4,1.2,1,1.5,1.7c0.4,0.7,0.5,1.5,0.5,2.4c0,1.5-0.6,2.8-1.8,3.9
			c-1.2,1.1-2.7,1.7-4.6,1.9v1.9c0,0.6-0.3,1-0.9,1h-0.2c-0.5,0-0.8-0.3-0.8-1V34c-1.8-0.2-3.3-0.7-4.5-1.5
			C3354.3,31.6,3353.7,30.8,3353.7,30z M3356.3,18.4c0,1,0.3,1.7,1,2.2c0.6,0.5,1.6,0.9,2.9,1.3v-7.2c-1.1,0.1-2.1,0.6-2.8,1.2
			C3356.7,16.7,3356.3,17.5,3356.3,18.4z M3361.8,32.1c1.3-0.1,2.3-0.5,3.2-1.2c0.8-0.7,1.2-1.5,1.2-2.5c0-1.1-0.4-1.9-1.1-2.4
			c-0.8-0.6-1.9-1-3.3-1.4V32.1z"/>
	</g>
	<g>
		<path fill="#44B6FF" d="M3417.7,30c0-0.3,0.1-0.5,0.3-0.7c0.2-0.2,0.4-0.4,0.6-0.5c0.2-0.1,0.3-0.1,0.3-0.1c1.1,1.9,2.8,3,5.2,3.3
			v-7.9c-0.8-0.2-1.6-0.4-2.2-0.7c-0.6-0.3-1.2-0.6-1.8-1c-0.6-0.4-1.1-1-1.4-1.6c-0.3-0.7-0.5-1.4-0.5-2.3c0-1.4,0.6-2.7,1.7-3.7
			c1.1-1,2.5-1.7,4.2-1.9V11c0-0.6,0.3-1,0.9-1h0.2c0.5,0,0.8,0.3,0.8,1v1.8c1.7,0.1,3.1,0.6,4.3,1.3s1.7,1.5,1.7,2.2
			c0,0.3-0.1,0.5-0.3,0.7c-0.2,0.2-0.4,0.4-0.6,0.5c-0.2,0.1-0.3,0.1-0.3,0.1c-0.4-0.8-1.1-1.4-1.9-1.9c-0.8-0.5-1.8-0.8-2.8-1v7.6
			c0.9,0.2,1.7,0.4,2.4,0.7c0.7,0.3,1.3,0.6,2,1.1c0.7,0.4,1.2,1,1.5,1.7c0.4,0.7,0.5,1.5,0.5,2.4c0,1.5-0.6,2.8-1.8,3.9
			c-1.2,1.1-2.7,1.7-4.6,1.9v1.9c0,0.6-0.3,1-0.9,1h-0.2c-0.5,0-0.8-0.3-0.8-1V34c-1.8-0.2-3.3-0.7-4.5-1.5
			C3418.3,31.6,3417.7,30.8,3417.7,30z M3420.3,18.4c0,1,0.3,1.7,1,2.2c0.6,0.5,1.6,0.9,2.9,1.3v-7.2c-1.1,0.1-2.1,0.6-2.8,1.2
			C3420.7,16.7,3420.3,17.5,3420.3,18.4z M3425.8,32.1c1.3-0.1,2.3-0.5,3.2-1.2c0.8-0.7,1.2-1.5,1.2-2.5c0-1.1-0.4-1.9-1.1-2.4
			c-0.8-0.6-1.9-1-3.3-1.4V32.1z"/>
	</g>
	<g>
		<path fill="#44B6FF" d="M3481.9,29.8c0-0.3,0.1-0.5,0.3-0.7c0.2-0.2,0.4-0.4,0.6-0.5c0.2-0.1,0.3-0.1,0.3-0.1
			c1.1,1.8,2.7,2.9,5,3.2v-7.6c-0.8-0.2-1.5-0.4-2.1-0.7c-0.6-0.2-1.2-0.6-1.8-1c-0.6-0.4-1-0.9-1.3-1.6c-0.3-0.6-0.5-1.4-0.5-2.2
			c0-1.4,0.5-2.6,1.6-3.6c1.1-1,2.4-1.6,4-1.8v-1.7c0-0.6,0.3-0.9,0.8-0.9h0.2c0.5,0,0.8,0.3,0.8,0.9v1.7c1.7,0.1,3,0.6,4.1,1.3
			c1.1,0.7,1.6,1.5,1.6,2.1c0,0.3-0.1,0.5-0.3,0.7c-0.2,0.2-0.4,0.4-0.6,0.5c-0.2,0.1-0.3,0.1-0.3,0.1c-0.4-0.7-1-1.4-1.8-1.9
			c-0.8-0.5-1.7-0.8-2.7-0.9v7.3c0.9,0.2,1.7,0.4,2.3,0.7c0.6,0.3,1.3,0.6,1.9,1c0.7,0.4,1.1,1,1.5,1.6c0.3,0.7,0.5,1.5,0.5,2.4
			c0,1.5-0.6,2.7-1.8,3.8c-1.2,1-2.7,1.6-4.4,1.8v1.8c0,0.6-0.3,0.9-0.8,1h-0.2c-0.5,0-0.8-0.3-0.8-1v-1.9c-1.7-0.2-3.2-0.7-4.4-1.5
			C3482.5,31.3,3481.9,30.6,3481.9,29.8z M3484.5,18.6c0,1,0.3,1.7,0.9,2.2c0.6,0.5,1.6,0.9,2.8,1.3v-6.9c-1.1,0.1-2,0.5-2.7,1.2
			C3484.8,16.9,3484.5,17.7,3484.5,18.6z M3489.8,31.8c1.2-0.1,2.3-0.5,3.1-1.1c0.8-0.7,1.2-1.5,1.2-2.4c0-1-0.4-1.8-1.1-2.3
			c-0.7-0.5-1.8-1-3.2-1.4V31.8z"/>
	</g>
	<g>
		<path fill="#44B6FF" d="M3545.9,29.8c0-0.3,0.1-0.5,0.3-0.7c0.2-0.2,0.4-0.4,0.6-0.5c0.2-0.1,0.3-0.1,0.3-0.1
			c1.1,1.8,2.7,2.9,5,3.2v-7.6c-0.8-0.2-1.5-0.4-2.1-0.7c-0.6-0.2-1.2-0.6-1.8-1c-0.6-0.4-1-0.9-1.3-1.6c-0.3-0.6-0.5-1.4-0.5-2.2
			c0-1.4,0.5-2.6,1.6-3.6c1.1-1,2.4-1.6,4-1.8v-1.7c0-0.6,0.3-0.9,0.8-0.9h0.2c0.5,0,0.8,0.3,0.8,0.9v1.7c1.7,0.1,3,0.6,4.1,1.3
			c1.1,0.7,1.6,1.5,1.6,2.1c0,0.3-0.1,0.5-0.3,0.7c-0.2,0.2-0.4,0.4-0.6,0.5c-0.2,0.1-0.3,0.1-0.3,0.1c-0.4-0.7-1-1.4-1.8-1.9
			c-0.8-0.5-1.7-0.8-2.7-0.9v7.3c0.9,0.2,1.7,0.4,2.3,0.7c0.6,0.3,1.3,0.6,1.9,1c0.7,0.4,1.1,1,1.5,1.6c0.3,0.7,0.5,1.5,0.5,2.4
			c0,1.5-0.6,2.7-1.8,3.8c-1.2,1-2.7,1.6-4.4,1.8v1.8c0,0.6-0.3,0.9-0.8,1h-0.2c-0.5,0-0.8-0.3-0.8-1v-1.9c-1.7-0.2-3.2-0.7-4.4-1.5
			C3546.5,31.3,3545.9,30.6,3545.9,29.8z M3548.5,18.6c0,1,0.3,1.7,0.9,2.2c0.6,0.5,1.6,0.9,2.8,1.3v-6.9c-1.1,0.1-2,0.5-2.7,1.2
			C3548.8,16.9,3548.5,17.7,3548.5,18.6z M3553.8,31.8c1.2-0.1,2.3-0.5,3.1-1.1c0.8-0.7,1.2-1.5,1.2-2.4c0-1-0.4-1.8-1.1-2.3
			c-0.7-0.5-1.8-1-3.2-1.4V31.8z"/>
	</g>
</g>
<g id="Layer_3" display="none">
</g>
</svg>
