<?xml version="1.0" encoding="utf-8"?>
<!-- Generator: Adobe Illustrator 18.1.1, SVG Export Plug-In . SVG Version: 6.00 Build 0)  -->
<!DOCTYPE svg PUBLIC "-//W3C//DTD SVG 1.1//EN" "http://www.w3.org/Graphics/SVG/1.1/DTD/svg11.dtd">
<svg version="1.1" xmlns="http://www.w3.org/2000/svg" xmlns:xlink="http://www.w3.org/1999/xlink" x="0px" y="0px"
	 viewBox="0 0 360 360" enable-background="new 0 0 360 360" xml:space="preserve">
<g id="Layer_2">
</g>
<g id="Layer_1">
	<polyline fill="none" stroke="#44B6FF" stroke-linecap="round" stroke-linejoin="round" stroke-miterlimit="10" points="
		73.9,135.9 291,135.9 291,271.1 73.9,271.1 73.9,135.9 	"/>
	<path fill="none" stroke="#44B6FF" stroke-linecap="round" stroke-linejoin="round" stroke-miterlimit="10" d="M262,187.5
		c-5.6-10-16.3-16.9-28.5-16.9c-18.1,0-32.7,14.6-32.7,32.6s14.7,33.1,32.8,33.1c16.1,0,29.6-11.3,32.3-26.7H73.9"/>
	
		<line fill="none" stroke="#44B6FF" stroke-linecap="round" stroke-linejoin="round" stroke-miterlimit="10" x1="84.3" y1="149.2" x2="124.5" y2="149.2"/>
	
		<line fill="none" stroke="#44B6FF" stroke-linecap="round" stroke-linejoin="round" stroke-miterlimit="10" x1="84.3" y1="158.3" x2="113.5" y2="158.3"/>
	
		<line fill="none" stroke="#44B6FF" stroke-linecap="round" stroke-linejoin="round" stroke-miterlimit="10" x1="84.3" y1="167.7" x2="122" y2="167.7"/>
	
		<rect x="265.8" y="144.2" fill="none" stroke="#44B6FF" stroke-linecap="round" stroke-linejoin="round" stroke-miterlimit="10" width="15" height="15"/>
	
		<line fill="none" stroke="#44B6FF" stroke-linecap="round" stroke-linejoin="round" stroke-miterlimit="10" x1="73.9" y1="135.9" x2="150.7" y2="59.1"/>
	
		<line fill="none" stroke="#44B6FF" stroke-linecap="round" stroke-linejoin="round" stroke-miterlimit="10" x1="189.4" y1="97.5" x2="291" y2="135.9"/>
</g>
</svg>
