<?xml version="1.0" encoding="utf-8"?>
<!-- Generator: Adobe Illustrator 18.0.0, SVG Export Plug-In . SVG Version: 6.00 Build 0)  -->
<!DOCTYPE svg PUBLIC "-//W3C//DTD SVG 1.1//EN" "http://www.w3.org/Graphics/SVG/1.1/DTD/svg11.dtd">
<svg version="1.1" id="Layer_1" xmlns="http://www.w3.org/2000/svg" xmlns:xlink="http://www.w3.org/1999/xlink" x="0px" y="0px"
	 viewBox="5457.1 2733.8 2268 2268" enable-background="new 5457.1 2733.8 2268 2268" xml:space="preserve">
<g>
	<g>
		
			<rect x="5607.1" y="3418.3" fill="none" stroke="#44B6FF" stroke-width="28" stroke-linecap="round" stroke-linejoin="round" stroke-miterlimit="10" width="1918.5" height="1199.1"/>
		
			<line fill="none" stroke="#44B6FF" stroke-width="28" stroke-linecap="round" stroke-linejoin="round" stroke-miterlimit="10" x1="5846.9" y1="3658.1" x2="6086.7" y2="3658.1"/>
		
			<line fill="none" stroke="#44B6FF" stroke-width="28" stroke-linecap="round" stroke-linejoin="round" stroke-miterlimit="10" x1="5966.8" y1="3831.3" x2="5966.8" y2="3831.3"/>
		
			<line fill="none" stroke="#44B6FF" stroke-width="28" stroke-linecap="round" stroke-linejoin="round" stroke-miterlimit="10" x1="7281.3" y1="4375.8" x2="7041.5" y2="4375.8"/>
		
			<line fill="none" stroke="#44B6FF" stroke-width="28" stroke-linecap="round" stroke-linejoin="round" stroke-miterlimit="10" x1="7161.4" y1="4202.6" x2="7161.4" y2="4202.6"/>
	</g>
	<path fill="none" stroke="#44B6FF" stroke-width="28" stroke-linecap="round" stroke-linejoin="round" stroke-miterlimit="10" d="
		M6428.2,4156c0,76.3,61.8,138.1,138.1,138.1c76.3,0,138.1-61.8,138.1-138.1c0-76.3-61.8-138.1-138.1-138.1
		c-76.3,0-138.1-61.8-138.1-138.1c0-76.3,61.8-138.1,138.1-138.1c76.3,0,138.1,61.8,138.1,138.1"/>
	
		<line fill="none" stroke="#44B6FF" stroke-width="28" stroke-linecap="round" stroke-linejoin="round" stroke-miterlimit="10" x1="6566.3" y1="4294.1" x2="6566.3" y2="4409.2"/>
	
		<line fill="none" stroke="#44B6FF" stroke-width="28" stroke-linecap="round" stroke-linejoin="round" stroke-miterlimit="10" x1="6566.3" y1="3626.5" x2="6566.3" y2="3741.6"/>
</g>
</svg>
