<?xml version="1.0" encoding="utf-8"?>
<!-- Generator: Adobe Illustrator 18.1.1, SVG Export Plug-In . SVG Version: 6.00 Build 0)  -->
<!DOCTYPE svg PUBLIC "-//W3C//DTD SVG 1.1//EN" "http://www.w3.org/Graphics/SVG/1.1/DTD/svg11.dtd">
<svg version="1.1" id="Layer_1" xmlns="http://www.w3.org/2000/svg" xmlns:xlink="http://www.w3.org/1999/xlink" x="0px" y="0px"
	 viewBox="0 0 360 360" enable-background="new 0 0 360 360" xml:space="preserve">
<g>
		<path vector-effect="non-scaling-stroke" fill="none" stroke="#44B6FF" stroke-linecap="round" stroke-linejoin="round" stroke-miterlimit="10" d="
		M158.1,201.9c0,12.1,9.8,21.9,21.9,21.9c12.1,0,21.9-9.8,21.9-21.9c0-12.1-9.8-21.9-21.9-21.9c-12.1,0-21.9-9.8-21.9-21.9
		s9.8-21.9,21.9-21.9c12.1,0,21.9,9.8,21.9,21.9"/>
	
		<line vector-effect="non-scaling-stroke" fill="none" stroke="#44B6FF" stroke-linecap="round" stroke-linejoin="round" stroke-miterlimit="10" x1="180" y1="223.8" x2="180" y2="242.1"/>
	
		<line vector-effect="non-scaling-stroke" fill="none" stroke="#44B6FF" stroke-linecap="round" stroke-linejoin="round" stroke-miterlimit="10" x1="180" y1="117.9" x2="180" y2="136.2"/>
</g>
<g>
<animateTransform attributeType="xml"
                    attributeName="transform"
                    type="translate"
                    from="0 0"
                    to="0 0"
                    values="0 0;0 10;0 10;0 0;0 -10;0 -10;0 0"
                    keySplines="0.1 0.8 0.2 1; 0.1 0.8 0.2 1; 0.1 0.8 0.2 1; 0.1 0.8 0.2 1; 0.1 0.8 0.2 1; 0.1 0.8 0.2 1" 
                    keyTimes="0;0.22;0.33;0.55;0.66;0.88;1" 
                    calcMode="spline"
                    dur="8s"
                    repeatCount="indefinite"/>	
		<path vector-effect="non-scaling-stroke" fill="none" stroke="#44B6FF" stroke-linecap="round" stroke-linejoin="round" stroke-miterlimit="10" d="
		M51.7,74.3c0,6.3,5.1,11.3,11.3,11.3c6.3,0,11.3-5.1,11.3-11.3C74.3,68.1,69.3,63,63,63s-11.3-5.1-11.3-11.3S56.7,40.4,63,40.4
		c6.3,0,11.3,5.1,11.3,11.3"/>
	
		<line vector-effect="non-scaling-stroke" fill="none" stroke="#44B6FF" stroke-linecap="round" stroke-linejoin="round" stroke-miterlimit="10" x1="63" y1="85.6" x2="63" y2="95.1"/>
	
		<line vector-effect="non-scaling-stroke" fill="none" stroke="#44B6FF" stroke-linecap="round" stroke-linejoin="round" stroke-miterlimit="10" x1="63" y1="30.9" x2="63" y2="40.4"/>
</g>
<g>
<animateTransform attributeType="xml"
                    attributeName="transform"
                    type="translate"
                    from="0 0"
                    to="0 0"
                    values="0 0;0 10;0 10;0 0;0 -10;0 -10;0 0"
                    keySplines="0.1 0.8 0.2 1; 0.1 0.8 0.2 1; 0.1 0.8 0.2 1; 0.1 0.8 0.2 1; 0.1 0.8 0.2 1; 0.1 0.8 0.2 1" 
                    keyTimes="0;0.22;0.33;0.55;0.66;0.88;1" 
                    calcMode="spline"
                    dur="8s"
                    repeatCount="indefinite"/>	
		<path vector-effect="non-scaling-stroke" fill="none" stroke="#44B6FF" stroke-linecap="round" stroke-linejoin="round" stroke-miterlimit="10" d="
		M286.1,308.3c0,6.3,5.1,11.3,11.3,11.3s11.3-5.1,11.3-11.3s-5.1-11.3-11.3-11.3s-11.3-5.1-11.3-11.3c0-6.3,5.1-11.3,11.3-11.3
		s11.3,5.1,11.3,11.3"/>
	
		<line vector-effect="non-scaling-stroke" fill="none" stroke="#44B6FF" stroke-linecap="round" stroke-linejoin="round" stroke-miterlimit="10" x1="297.4" y1="319.6" x2="297.4" y2="329.1"/>
	
		<line vector-effect="non-scaling-stroke" fill="none" stroke="#44B6FF" stroke-linecap="round" stroke-linejoin="round" stroke-miterlimit="10" x1="297.4" y1="264.9" x2="297.4" y2="274.4"/>
</g>
<circle vector-effect="non-scaling-stroke" fill="none" stroke="#44B6FF" stroke-linecap="round" stroke-linejoin="round" stroke-miterlimit="10" cx="180" cy="180" r="117"/>
</svg>
