<?xml version="1.0" encoding="utf-8"?>
<!-- Generator: Adobe Illustrator 18.1.1, SVG Export Plug-In . SVG Version: 6.00 Build 0)  -->
<!DOCTYPE svg PUBLIC "-//W3C//DTD SVG 1.1//EN" "http://www.w3.org/Graphics/SVG/1.1/DTD/svg11.dtd">
<svg version="1.1" xmlns="http://www.w3.org/2000/svg" xmlns:xlink="http://www.w3.org/1999/xlink" x="0px" y="0px"
	 viewBox="0 0 360 360" enable-background="new 0 0 360 360" xml:space="preserve">
<g id="Layer_2">
</g>
<g id="Layer_1">
	<g>
		<path vector-effect="non-scaling-stroke" fill="none" stroke="#44B6FF" stroke-linecap="round" stroke-linejoin="round" stroke-miterlimit="10" d="M180,86
			c-70.3,0-127.3,42.1-127.3,94c0,14.3,4.3,27.8,12.1,40l-11.6,43.2l44-11.8c22.3,14.1,51.2,22.6,82.8,22.6
			c70.3,0,127.3-42.1,127.3-94C307.3,128.1,250.3,86,180,86z"/>
		<path vector-effect="non-scaling-stroke" fill="none" stroke="#44B6FF" stroke-linecap="round" stroke-linejoin="round" stroke-miterlimit="10" d="M218.5,155.8
			c-7.5-13.2-21.6-22.5-37.9-22.5c-24.1,0-43.5,19.4-43.5,43.4s19.5,44,43.6,44c21.5,0,39.3-15,42.9-35.4H111"/>
	</g>
</g>
</svg>
