<?xml version="1.0" encoding="utf-8"?>
<!-- Generator: Adobe Illustrator 18.0.0, SVG Export Plug-In . SVG Version: 6.00 Build 0)  -->
<!DOCTYPE svg PUBLIC "-//W3C//DTD SVG 1.1//EN" "http://www.w3.org/Graphics/SVG/1.1/DTD/svg11.dtd">
<svg version="1.1" id="Layer_1" xmlns="http://www.w3.org/2000/svg" xmlns:xlink="http://www.w3.org/1999/xlink" x="0px" y="0px"
	 viewBox="0 0 133 133" enable-background="new 0 0 133 133" xml:space="preserve">
<rect x="-862.5" y="-124.5" fill-rule="evenodd" clip-rule="evenodd" fill="none" width="1024" height="4156"/>
<rect x="-862.5" y="-124.5" fill-rule="evenodd" clip-rule="evenodd" fill="none" width="1024" height="4156"/>
<rect x="-444.5" y="-124.5" fill-rule="evenodd" clip-rule="evenodd" fill="none" width="1024" height="4156"/>
<g>
	<path fill="#FFFFFF" d="M68.4,105.8c18.4,0,34.2-12.5,38.1-30h-76C34.7,93,50.1,105.8,68.4,105.8z"/>
	<path fill="#FFFFFF" d="M130.7,19.2c-2.9-7.8-9-14-16.9-16.9C106.7,0,100,0,86.6,0H46.4C33,0,26.3,0,19.2,2.3
		c-7.8,2.9-14,9-16.9,16.9C0,26.3,0,33,0,46.4v26.4h26.9c-0.3-2.1-0.5-4.3-0.5-6.5c0-23.1,18.9-41.9,42-41.9
		c15,0,29.1,8.3,36.6,21.7c0.4,0.7,0.2,1.6-0.6,2c-0.7,0.4-1.6,0.2-2-0.6c-7-12.4-20-20.2-34-20.2c-21.5,0-39,17.5-39,38.9
		c0,2.2,0.2,4.4,0.5,6.5h78.5c0.4,0,0.9,0.2,1.1,0.5c0.3,0.3,0.4,0.8,0.3,1.2c-3.5,19.8-20.9,34.2-41.4,34.2c-20,0-36.7-14.1-41-33
		H0v10.9c0,13.4,0,20,2.3,27.2c2.9,7.8,9,14,16.9,16.9C26.3,133,33,133,46.4,133h40.3c13.4,0,20,0,27.2-2.3c7.8-2.9,14-9,16.9-16.9
		c2.3-7.2,2.3-13.9,2.3-27.2V46.4C133,33,133,26.3,130.7,19.2z"/>
</g>
</svg>
