<?xml version="1.0" encoding="utf-8"?>
<!-- Generator: Adobe Illustrator 18.1.1, SVG Export Plug-In . SVG Version: 6.00 Build 0)  -->
<!DOCTYPE svg PUBLIC "-//W3C//DTD SVG 1.1//EN" "http://www.w3.org/Graphics/SVG/1.1/DTD/svg11.dtd">
<svg version="1.1" xmlns="http://www.w3.org/2000/svg" xmlns:xlink="http://www.w3.org/1999/xlink" x="0px" y="0px"
	 viewBox="0 0 360 360" enable-background="new 0 0 360 360" xml:space="preserve">
<g id="Layer_2">
</g>
<g id="Layer_1">
	
		<circle vector-effect="non-scaling-stroke" fill="#FFFFFF" stroke="#44B6FF" stroke-linecap="round" stroke-linejoin="round" stroke-miterlimit="10" cx="181.9" cy="98.8" r="9.2"/>
	<path vector-effect="non-scaling-stroke" fill="#FFFFFF" stroke="#44B6FF" stroke-linecap="round" stroke-linejoin="round" stroke-miterlimit="10" d="M9.5,249.9
		c0,3.5,3.2,6.1,6.7,5.3c53-11.9,108-18.2,164.5-18.2c56,0,108,6.2,162.9,17.9c3.4,0.7,6.6-1.8,6.6-5.3v0c0-2.6-1.8-4.8-4.3-5.3
		c-55.7-12-108.4-18.4-165.2-18.4c-57.3,0-113.2,6.5-166.9,18.8C11.3,245.1,9.5,247.4,9.5,249.9L9.5,249.9z"/>
	<path vector-effect="non-scaling-stroke" fill="#FFFFFF" stroke="#44B6FF" stroke-linecap="round" stroke-linejoin="round" stroke-miterlimit="10" d="M328.8,240.5
		c-0.4-28.6-7.8-55.3-20.6-78.3c-25.8-46.5-73.1-64.4-127.3-64.4c-52.8,0-99.1,16.3-125.2,60.8c-14,23.8-22.3,51.9-22.6,82
		c48-9.6,97.7-14.7,148.3-14.7C231.9,225.8,279.5,230.9,328.8,240.5z"/>
	<path vector-effect="non-scaling-stroke" fill="#FFFFFF" stroke="#44B6FF" stroke-linecap="round" stroke-linejoin="round" stroke-miterlimit="10" d="M219.3,141.4
		c-7.5-13.2-21.6-22.5-37.9-22.5c-24.1,0-43.5,19.4-43.5,43.4s19.5,44,43.6,44c21.5,0,39.3-15,42.9-35.4H111.8"/>
</g>
</svg>
