<?xml version="1.0" encoding="utf-8"?>
<!-- Generator: Adobe Illustrator 18.0.0, SVG Export Plug-In . SVG Version: 6.00 Build 0)  -->
<!DOCTYPE svg PUBLIC "-//W3C//DTD SVG 1.1//EN" "http://www.w3.org/Graphics/SVG/1.1/DTD/svg11.dtd">
<svg version="1.1" id="Layer_1" xmlns="http://www.w3.org/2000/svg" xmlns:xlink="http://www.w3.org/1999/xlink" x="0px" y="0px"
	 viewBox="2945.1 0 2268 2268" enable-background="new 2945.1 0 2268 2268" xml:space="preserve">
<g>
	<g>
		
			<rect x="3051.4" y="514.7" fill="none" stroke="#44B6FF" stroke-width="28" stroke-linecap="round" stroke-linejoin="round" stroke-miterlimit="10" width="2055.3" height="1284.6"/>
		
			<line fill="none" stroke="#44B6FF" stroke-width="28" stroke-linecap="round" stroke-linejoin="round" stroke-miterlimit="10" x1="3308.3" y1="771.6" x2="3565.3" y2="771.6"/>
		
			<line fill="none" stroke="#44B6FF" stroke-width="28" stroke-linecap="round" stroke-linejoin="round" stroke-miterlimit="10" x1="3436.8" y1="957.2" x2="3436.8" y2="957.2"/>
		
			<line fill="none" stroke="#44B6FF" stroke-width="28" stroke-linecap="round" stroke-linejoin="round" stroke-miterlimit="10" x1="4845" y1="1540.5" x2="4588.1" y2="1540.5"/>
		
			<line fill="none" stroke="#44B6FF" stroke-width="28" stroke-linecap="round" stroke-linejoin="round" stroke-miterlimit="10" x1="4716.6" y1="1354.9" x2="4716.6" y2="1354.9"/>
	</g>
	<path fill="none" stroke="#44B6FF" stroke-width="28" stroke-linecap="round" stroke-linejoin="round" stroke-miterlimit="10" d="
		M3931.1,1305c0,81.7,66.2,148,148,148c81.7,0,148-66.2,148-148c0-81.7-66.2-148-148-148c-81.7,0-148-66.2-148-148s66.2-148,148-148
		c81.7,0,148,66.2,148,148"/>
	
		<line fill="none" stroke="#44B6FF" stroke-width="28" stroke-linecap="round" stroke-linejoin="round" stroke-miterlimit="10" x1="4079.1" y1="1452.9" x2="4079.1" y2="1576.3"/>
	
		<line fill="none" stroke="#44B6FF" stroke-width="28" stroke-linecap="round" stroke-linejoin="round" stroke-miterlimit="10" x1="4079.1" y1="737.7" x2="4079.1" y2="861.1"/>
</g>
</svg>
