<?xml version="1.0" encoding="utf-8"?>
<!-- Generator: Adobe Illustrator 18.0.0, SVG Export Plug-In . SVG Version: 6.00 Build 0)  -->
<!DOCTYPE svg PUBLIC "-//W3C//DTD SVG 1.1//EN" "http://www.w3.org/Graphics/SVG/1.1/DTD/svg11.dtd">
<svg version="1.1" id="Layer_1" xmlns="http://www.w3.org/2000/svg" xmlns:xlink="http://www.w3.org/1999/xlink" x="0px" y="0px"
	 viewBox="0 0 2268 2268" enable-background="new 0 0 2268 2268" xml:space="preserve">
<g>
	<g>
		
			<rect x="174.7" y="534.5" fill="none" stroke="#44B6FF" stroke-width="28" stroke-linecap="round" stroke-linejoin="round" stroke-miterlimit="10" width="1918.5" height="1199.1"/>
		
			<line fill="none" stroke="#44B6FF" stroke-width="28" stroke-linecap="round" stroke-linejoin="round" stroke-miterlimit="10" x1="414.6" y1="774.3" x2="654.4" y2="774.3"/>
		
			<line fill="none" stroke="#44B6FF" stroke-width="28" stroke-linecap="round" stroke-linejoin="round" stroke-miterlimit="10" x1="534.5" y1="947.5" x2="534.5" y2="947.5"/>
		
			<line fill="none" stroke="#44B6FF" stroke-width="28" stroke-linecap="round" stroke-linejoin="round" stroke-miterlimit="10" x1="1849" y1="1492" x2="1609.2" y2="1492"/>
		
			<line fill="none" stroke="#44B6FF" stroke-width="28" stroke-linecap="round" stroke-linejoin="round" stroke-miterlimit="10" x1="1729.1" y1="1318.8" x2="1729.1" y2="1318.8"/>
	</g>
	<path fill="none" stroke="#44B6FF" stroke-width="28" stroke-linecap="round" stroke-linejoin="round" stroke-miterlimit="10" d="
		M995.9,1272.1c0,76.3,61.8,138.1,138.1,138.1c76.3,0,138.1-61.8,138.1-138.1c0-76.3-61.8-138.1-138.1-138.1
		c-76.3,0-138.1-61.8-138.1-138.1s61.8-138.1,138.1-138.1c76.3,0,138.1,61.8,138.1,138.1"/>
	
		<line fill="none" stroke="#44B6FF" stroke-width="28" stroke-linecap="round" stroke-linejoin="round" stroke-miterlimit="10" x1="1134" y1="1410.2" x2="1134" y2="1525.4"/>
	
		<line fill="none" stroke="#44B6FF" stroke-width="28" stroke-linecap="round" stroke-linejoin="round" stroke-miterlimit="10" x1="1134" y1="742.6" x2="1134" y2="857.8"/>
</g>
</svg>
