<?xml version="1.0" encoding="utf-8"?>
<!-- Generator: Adobe Illustrator 18.1.1, SVG Export Plug-In . SVG Version: 6.00 Build 0)  -->
<!DOCTYPE svg PUBLIC "-//W3C//DTD SVG 1.1//EN" "http://www.w3.org/Graphics/SVG/1.1/DTD/svg11.dtd">
<svg version="1.1" id="Layer_1" xmlns="http://www.w3.org/2000/svg" xmlns:xlink="http://www.w3.org/1999/xlink" x="0px" y="0px"
	 viewBox="0 0 360 360" enable-background="new 0 0 360 360" xml:space="preserve">
<g>
	<polyline fill="none" stroke="#44B6FF" stroke-linecap="round" stroke-linejoin="round" stroke-miterlimit="10" points="26.4,84.3 
		333.6,84.3 333.6,275.7 26.4,275.7 26.4,84.3 	"/>
	<path fill="none" stroke="#44B6FF" stroke-linecap="round" stroke-linejoin="round" stroke-miterlimit="10" d="M292.6,157.4
		c-8-14.1-23-23.9-40.4-23.9c-25.6,0-46.3,20.6-46.3,46.2s20.8,46.9,46.4,46.9c22.9,0,41.8-16,45.7-37.7H26.4"/>
	
		<line fill="none" stroke="#44B6FF" stroke-linecap="round" stroke-linejoin="round" stroke-miterlimit="10" x1="41.1" y1="103.2" x2="98" y2="103.2"/>
	
		<line fill="none" stroke="#44B6FF" stroke-linecap="round" stroke-linejoin="round" stroke-miterlimit="10" x1="41.1" y1="116" x2="82.4" y2="116"/>
	
		<line fill="none" stroke="#44B6FF" stroke-linecap="round" stroke-linejoin="round" stroke-miterlimit="10" x1="41.1" y1="129.4" x2="94.5" y2="129.4"/>
	
		<rect x="297.9" y="96.1" fill="none" stroke="#44B6FF" stroke-linecap="round" stroke-linejoin="round" stroke-miterlimit="10" width="21.3" height="21.3"/>
</g>
<line fill="none" stroke="#44B6FF" stroke-linecap="round" stroke-linejoin="round" stroke-miterlimit="10" x1="26.4" y1="84.3" x2="179.1" y2="67.6"/>
<line fill="none" stroke="#44B6FF" stroke-linecap="round" stroke-linejoin="round" stroke-miterlimit="10" x1="333.6" y1="84.3" x2="183.8" y2="50.4"/>
<g>
	
		<polyline fill="none" stroke="#44B6FF" stroke-width="28" stroke-linecap="round" stroke-linejoin="round" stroke-miterlimit="10" points="
		288.6,1720.7 1920.3,1720.7 1920.3,547.3 	"/>
	
		<line fill="none" stroke="#44B6FF" stroke-width="28" stroke-linecap="round" stroke-linejoin="round" stroke-miterlimit="10" x1="1566.4" y1="784.6" x2="1566.4" y2="1719"/>
	
		<line fill="none" stroke="#44B6FF" stroke-width="28" stroke-linecap="round" stroke-linejoin="round" stroke-miterlimit="10" x1="1212.4" y1="1251.8" x2="1212.4" y2="1719"/>
	
		<line fill="none" stroke="#44B6FF" stroke-width="28" stroke-linecap="round" stroke-linejoin="round" stroke-miterlimit="10" x1="858.5" y1="1021.8" x2="858.5" y2="1719"/>
	
		<line fill="none" stroke="#44B6FF" stroke-width="28" stroke-linecap="round" stroke-linejoin="round" stroke-miterlimit="10" x1="504.6" y1="1388.5" x2="504.6" y2="1719"/>
</g>
</svg>
